{
.appVersion = "1160";
classes = (
{
automatic = 1;

glyphs = (
{
glyphname = A;
layers = (
{
anchors = (
{
name = bottom;
position = "{635, 0}";
},
{
name = ogonek;
position = "{1134, 10}";
},
{
name = top;
position = "{602, 985}";
}
);
layerId = "1C2BFDD8-856B-473B-8B37-FA70972360C9";
paths = (
{
closed = 1;
nodes = (
"128 0 LINE",
"254 327 LINE",
"564 327 LINE",
"711 0 LINE",
"1244 0 LINE",
"807 985 LINE",
"396 985 LINE",
"25 0 LINE"
);
},
{
closed = 1;
nodes = (
"396 698 LINE",
"525 412 LINE",
"286 412 LINE"
);
}
);
width = 1269;
}
);
leftKerningGroup = A;
rightKerningGroup = A;
unicode = 0041;
},
{
glyphname = AE;
layers = (
{
layerId = "1C2BFDD8-856B-473B-8B37-FA70972360C9";
paths = (
{
closed = 1;
nodes = (
"1959 0 LINE",
"1959 84 LINE",
"1431 84 LINE",
"1431 453 LINE",
"1690 453 LINE",
"1690 537 LINE",
"1431 537 LINE",
"1431 901 LINE",
"1959 901 LINE",
"1959 985 LINE",
"938 985 LINE",
"938 0 LINE"
);
},
{
closed = 1;
nodes = (
"489 0 LINE",
"860 985 LINE",
"392 985 LINE",
"25 0 LINE"
);
},
{
closed = 1;
nodes = (
"1062 327 LINE",
"1062 412 LINE",
"518 412 LINE",
"518 327 LINE"
);
},
{
closed = 1;
nodes = (
"1341 899 LINE",
"1341 985 LINE",
"687 985 LINE",
"687 899 LINE"
);
}
);
width = 1999;
}
);
leftKerningGroup = A;
rightKerningGroup = E;
unicode = 00C6;
},
{
glyphname = B;
layers = (
{
anchors = (
{
name = top;
position = "{542, 985}";
}
);
layerId = "1C2BFDD8-856B-473B-8B37-FA70972360C9";
paths = (
{
closed = 1;
nodes = (
"989 0 LINE",
"1133 0 OFFCURVE",
"1250 117 OFFCURVE",
"1250 260 CURVE",
"1250 354 OFFCURVE",
"1200 443 OFFCURVE",
"1126 493 CURVE",
"1200 543 OFFCURVE",
"1250 631 OFFCURVE",
"1250 725 CURVE",
"1250 869 OFFCURVE",
"1133 985 OFFCURVE",
"989 985 CURVE",
"50 985 LINE",
"50 0 LINE"
);
},
{
closed = 1;
nodes = (
"558 82 OFFCURVE",
"551 82 OFFCURVE",
"544 83 CURVE",
"544 452 LINE",
"565 452 LINE",
"668 452 OFFCURVE",
"751 369 OFFCURVE",
"751 267 CURVE",
"751 165 OFFCURVE",
"668 82 OFFCURVE",
"565 82 CURVE"
);
},
{
closed = 1;
nodes = (
"558 533 OFFCURVE",
"551 533 OFFCURVE",
"544 534 CURVE",
"544 904 LINE",
"565 904 LINE",
"668 904 OFFCURVE",
"751 821 OFFCURVE",
"751 718 CURVE",
"751 616 OFFCURVE",
"668 533 OFFCURVE",
"565 533 CURVE"
);
}
);
width = 1295;
}
);
leftKerningGroup = H;
rightKerningGroup = B;
unicode = 0042;
},
{
glyphname = C;
layers = (
{
anchors = (
{
name = top;
position = "{591, 993}";
}
);
layerId = "1C2BFDD8-856B-473B-8B37-FA70972360C9";
paths = (
{
closed = 1;
nodes = (
"689 92 OFFCURVE",
"635 137 OFFCURVE",
"601 228 CURVE",
"574 297 OFFCURVE",
"561 386 OFFCURVE",
"561 493 CURVE",
"561 559 OFFCURVE",
"566 619 OFFCURVE",
"577 675 CURVE",
"591 741 OFFCURVE",
"611 792 OFFCURVE",
"638 829 CURVE",
"670 872 OFFCURVE",
"711 894 OFFCURVE",
"761 894 CURVE",
"936 894 OFFCURVE",
"991 705 OFFCURVE",
"1000 601 CURVE",
"1080 601 LINE",
"1075 691 OFFCURVE",
"1044 807 OFFCURVE",
"974 886 CURVE",
"890 982 OFFCURVE",
"757 993 OFFCURVE",
"591 993 CURVE",
"405 993 OFFCURVE",
"274 977 OFFCURVE",
"161 864 CURVE",
"78 781 OFFCURVE",
"40 655 OFFCURVE",
"40 493 CURVE",
"40 336 OFFCURVE",
"85 213 OFFCURVE",
"175 123 CURVE",
"266 32 OFFCURVE",
"382 -7 OFFCURVE",
"591 -7 CURVE",
"777 -7 OFFCURVE",
"903 2 OFFCURVE",
"996 126 CURVE",
"1044 190 OFFCURVE",
"1081 275 OFFCURVE",
"1095 385 CURVE",
"1009 385 LINE",
"987 244 OFFCURVE",
"914 92 OFFCURVE",
"761 92 CURVE"
);
}
);
width = 1135;
}
);
leftKerningGroup = C;
rightKerningGroup = C;
unicode = 0043;
},
{
glyphname = D;
layers = (
{
anchors = (
{
name = top;
position = "{286, 985}";
}
);
layerId = "1C2BFDD8-856B-473B-8B37-FA70972360C9";
paths = (
{
closed = 1;
nodes = (
"779 0 LINE",
"914 0 OFFCURVE",
"1030 48 OFFCURVE",
"1127 144 CURVE",
"1223 241 OFFCURVE",
"1271 357 OFFCURVE",
"1271 493 CURVE",
"1271 628 OFFCURVE",
"1223 744 OFFCURVE",
"1127 841 CURVE",
"1030 937 OFFCURVE",
"914 985 OFFCURVE",
"779 985 CURVE",
"40 985 LINE",
"40 0 LINE"
);
},
{
closed = 1;
nodes = (
"532 903 LINE",
"616 903 LINE",
"667 903 OFFCURVE",
"706 886 OFFCURVE",
"730 851 CURVE",
"752 821 OFFCURVE",
"766 779 OFFCURVE",
"772 725 CURVE",
"777 670 OFFCURVE",
"780 593 OFFCURVE",
"780 493 CURVE",
"780 385 OFFCURVE",
"778 313 OFFCURVE",
"774 277 CURVE",
"768 212 OFFCURVE",
"753 164 OFFCURVE",
"732 134 CURVE",
"707 99 OFFCURVE",
"668 82 OFFCURVE",
"616 82 CURVE",
"532 82 LINE"
);
}
);
width = 1301;
}
);
leftKerningGroup = H;
rightKerningGroup = O;
unicode = 0044;
},
{
glyphname = E;
layers = (
{
anchors = (
{
name = top;
position = "{551, 985}";
}
);
layerId = "1C2BFDD8-856B-473B-8B37-FA70972360C9";
paths = (
{
closed = 1;
nodes = (
"1062 0 LINE",
"1062 84 LINE",
"534 84 LINE",
"534 453 LINE",
"793 453 LINE",
"793 537 LINE",
"534 537 LINE",
"534 901 LINE",
"1062 901 LINE",
"1062 985 LINE",
"40 985 LINE",
"40 0 LINE"
);
}
);
width = 1102;
}
);
leftKerningGroup = H;
rightKerningGroup = E;
unicode = 0045;
},
{
glyphname = F;
layers = (
{
anchors = (
{
name = top;
position = "{551, 985}";
}
);
layerId = "1C2BFDD8-856B-473B-8B37-FA70972360C9";
paths = (
{
closed = 1;
nodes = (
"533 0 LINE",
"533 453 LINE",
"792 453 LINE",
"792 537 LINE",
"533 537 LINE",
"533 901 LINE",
"1061 901 LINE",
"1061 985 LINE",
"40 985 LINE",
"40 0 LINE"
);
}
);
width = 1101;
}
);
leftKerningGroup = H;
rightKerningGroup = F;
unicode = 0046;
},
{
glyphname = G;
layers = (
{
anchors = (
{
name = top;
position = "{592, 993}";
}
);
layerId = "1C2BFDD8-856B-473B-8B37-FA70972360C9";
paths = (
{
closed = 1;
nodes = (
"40 336 OFFCURVE",
"86 213 OFFCURVE",
"176 123 CURVE SMOOTH",
"267 32 OFFCURVE",
"383 -7 OFFCURVE",
"592 -7 CURVE SMOOTH",
"654 -7 OFFCURVE",
"972 0 OFFCURVE",
"1192 0 CURVE",
"1192 481 LINE",
"762 481 LINE",
"762 92 LINE",
"689 92 OFFCURVE",
"636 137 OFFCURVE",
"601 228 CURVE SMOOTH",
"575 297 OFFCURVE",
"561 386 OFFCURVE",
"561 493 CURVE SMOOTH",
"561 559 OFFCURVE",
"567 619 OFFCURVE",
"578 675 CURVE SMOOTH",
"591 741 OFFCURVE",
"612 792 OFFCURVE",
"639 829 CURVE SMOOTH",
"671 872 OFFCURVE",
"712 894 OFFCURVE",
"762 894 CURVE SMOOTH",
"937 894 OFFCURVE",
"992 705 OFFCURVE",
"1001 601 CURVE",
"1081 601 LINE",
"1076 691 OFFCURVE",
"1044 807 OFFCURVE",
"975 886 CURVE SMOOTH",
"891 982 OFFCURVE",
"758 993 OFFCURVE",
"592 993 CURVE SMOOTH",
"405 993 OFFCURVE",
"275 977 OFFCURVE",
"162 864 CURVE SMOOTH",
"78 781 OFFCURVE",
"40 655 OFFCURVE",
"40 493 CURVE SMOOTH"
);
}
);
width = 1232;
}
);
leftKerningGroup = C;
rightKerningGroup = G;
unicode = 0047;
},
{
glyphname = H;
layers = (
{
anchors = (
{
name = top;
position = "{673, 985}";
}
);
layerId = "1C2BFDD8-856B-473B-8B37-FA70972360C9";
paths = (
{
closed = 1;
nodes = (
"518 0 LINE",
"518 450 LINE",
"828 450 LINE",
"828 0 LINE",
"1306 0 LINE",
"1306 985 LINE",
"828 985 LINE",
"828 544 LINE",
"518 544 LINE",
"518 985 LINE",
"40 985 LINE",
"40 0 LINE"
);
}
);
width = 1346;
}
);
leftKerningGroup = H;
rightKerningGroup = H;
unicode = 0048;
},
{
glyphname = I;
layers = (
{
anchors = (
{
name = top;
position = "{268, 985}";
}
);
layerId = "1C2BFDD8-856B-473B-8B37-FA70972360C9";
paths = (
{
closed = 1;
nodes = (
"498 0 LINE",
"498 985 LINE",
"40 985 LINE",
"40 0 LINE"
);
}
);
width = 538;
}
);
leftKerningGroup = H;
rightKerningGroup = H;
unicode = 0049;
},
{
glyphname = J;
layers = (
{
anchors = (
{
name = top;
position = "{717, 985}";
}
);
layerId = "1C2BFDD8-856B-473B-8B37-FA70972360C9";
paths = (
{
closed = 1;
nodes = (
"862 -7 OFFCURVE",
"984 97 OFFCURVE",
"984 296 CURVE SMOOTH",
"984 985 LINE",
"447 985 LINE",
"447 296 LINE SMOOTH",
"447 155 OFFCURVE",
"375 104 OFFCURVE",
"285 104 CURVE SMOOTH",
"195 104 OFFCURVE",
"123 147 OFFCURVE",
"123 296 CURVE SMOOTH",
"123 373 LINE",
"40 373 LINE",
"40 296 LINE SMOOTH",
"40 52 OFFCURVE",
"192 -7 OFFCURVE",
"512 -7 CURVE SMOOTH"
);
}
);
width = 1024;
}
);
leftKerningGroup = J;
rightKerningGroup = H;
unicode = 004A;
},
{
glyphname = K;
layers = (
{
anchors = (
{
name = top;
position = "{647, 985}";
}
);
layerId = "1C2BFDD8-856B-473B-8B37-FA70972360C9";
paths = (
{
closed = 1;
nodes = (
"1320 0 LINE",
"1009 493 LINE",
"1255 985 LINE",
"764 985 LINE",
"533 493 LINE",
"824 0 LINE"
);
},
{
closed = 1;
nodes = (
"533 0 LINE",
"533 985 LINE",
"40 985 LINE",
"40 0 LINE"
);
}
);
width = 1360;
}
);
leftKerningGroup = H;
rightKerningGroup = K;
unicode = 004B;
},
{
glyphname = L;
layers = (
{
anchors = (
{
name = top;
position = "{286, 985}";
}
);
layerId = "1C2BFDD8-856B-473B-8B37-FA70972360C9";
paths = (
{
closed = 1;
nodes = (
"1068 0 LINE",
"1068 84 LINE",
"533 84 LINE",
"533 985 LINE",
"40 985 LINE",
"40 0 LINE"
);
}
);
width = 1108;
}
);
leftKerningGroup = H;
rightKerningGroup = L;
unicode = 004C;
},
{
glyphname = M;
layers = (
{
anchors = (
{
name = top;
position = "{654, 985}";
}
);
layerId = "1C2BFDD8-856B-473B-8B37-FA70972360C9";
paths = (
{
closed = 1;
nodes = (
"532 0 LINE",
"818 738 LINE",
"818 0 LINE",
"1269 0 LINE",
"1269 985 LINE",
"818 985 LINE",
"655 574 LINE",
"450 985 LINE",
"40 985 LINE",
"40 0 LINE",
"122 0 LINE",
"122 655 LINE",
"409 0 LINE"
);
}
);
width = 1309;
}
);
leftKerningGroup = H;
rightKerningGroup = H;
unicode = 004D;
},
{
glyphname = N;
layers = (
{
anchors = (
{
name = top;
position = "{494, 985}";
}
);
layerId = "1C2BFDD8-856B-473B-8B37-FA70972360C9";
paths = (
{
closed = 1;
nodes = (
"125 0 LINE",
"125 656 LINE",
"617 0 LINE",
"948 0 LINE",
"948 985 LINE",
"864 985 LINE",
"864 492 LINE",
"453 985 LINE",
"40 985 LINE",
"40 0 LINE"
);
}
);
width = 988;
}
);
leftKerningGroup = H;
rightKerningGroup = H;
unicode = 004E;
},
{
glyphname = O;
layers = (
{
anchors = (
{
name = top;
position = "{697, 993}";
}
);
layerId = "1C2BFDD8-856B-473B-8B37-FA70972360C9";
paths = (
{
closed = 1;
nodes = (
"1065 -7 OFFCURVE",
"1363 164 OFFCURVE",
"1363 493 CURVE",
"1363 818 OFFCURVE",
"1065 993 OFFCURVE",
"697 993 CURVE",
"328 993 OFFCURVE",
"30 818 OFFCURVE",
"30 493 CURVE",
"30 164 OFFCURVE",
"328 -7 OFFCURVE",
"697 -7 CURVE"
);
},
{
closed = 1;
nodes = (
"657 76 OFFCURVE",
"627 94 OFFCURVE",
"608 129 CURVE",
"592 159 OFFCURVE",
"581 208 OFFCURVE",
"576 274 CURVE",
"573 311 OFFCURVE",
"572 384 OFFCURVE",
"572 493 CURVE",
"572 595 OFFCURVE",
"574 673 OFFCURVE",
"578 728 CURVE",
"582 784 OFFCURVE",
"592 827 OFFCURVE",
"609 857 CURVE",
"628 892 OFFCURVE",
"657 910 OFFCURVE",
"697 910 CURVE",
"736 910 OFFCURVE",
"765 892 OFFCURVE",
"784 857 CURVE",
"801 827 OFFCURVE",
"811 784 OFFCURVE",
"815 728 CURVE",
"820 673 OFFCURVE",
"822 595 OFFCURVE",
"822 493 CURVE",
"822 384 OFFCURVE",
"820 311 OFFCURVE",
"817 274 CURVE",
"812 208 OFFCURVE",
"802 159 OFFCURVE",
"785 129 CURVE",
"766 94 OFFCURVE",
"737 76 OFFCURVE",
"697 76 CURVE"
);
}
);
width = 1393;
}
);
leftKerningGroup = O;
rightKerningGroup = O;
unicode = 004F;
},
{
glyphname = OE;
layers = (
{
anchors = (
{
name = top;
position = "{1008, 985}";
}
);
layerId = "1C2BFDD8-856B-473B-8B37-FA70972360C9";
paths = (
{
closed = 1;
nodes = (
"30 183 OFFCURVE",
"274 1 OFFCURVE",
"717 0 CURVE",
"1874 0 LINE",
"1874 84 LINE",
"1346 84 LINE",
"1346 453 LINE",
"1605 453 LINE",
"1605 537 LINE",
"1346 537 LINE",
"1346 901 LINE",
"1874 901 LINE",
"1874 985 LINE",
"717 985 LINE SMOOTH",
"328 985 OFFCURVE",
"30 818 OFFCURVE",
"30 493 CURVE SMOOTH"
);
},
{
closed = 1;
nodes = (
"572 595 OFFCURVE",
"574 673 OFFCURVE",
"578 728 CURVE SMOOTH",
"582 784 OFFCURVE",
"592 827 OFFCURVE",
"609 857 CURVE SMOOTH",
"628 892 OFFCURVE",
"657 910 OFFCURVE",
"697 910 CURVE SMOOTH",
"736 910 OFFCURVE",
"765 892 OFFCURVE",
"784 857 CURVE SMOOTH",
"801 827 OFFCURVE",
"811 784 OFFCURVE",
"815 728 CURVE SMOOTH",
"820 673 OFFCURVE",
"822 595 OFFCURVE",
"822 493 CURVE SMOOTH",
"822 384 OFFCURVE",
"820 311 OFFCURVE",
"817 274 CURVE SMOOTH",
"812 208 OFFCURVE",
"802 159 OFFCURVE",
"785 129 CURVE SMOOTH",
"766 94 OFFCURVE",
"737 76 OFFCURVE",
"697 76 CURVE SMOOTH",
"657 76 OFFCURVE",
"627 94 OFFCURVE",
"608 129 CURVE SMOOTH",
"592 159 OFFCURVE",
"581 208 OFFCURVE",
"576 274 CURVE SMOOTH",
"573 311 OFFCURVE",
"572 384 OFFCURVE",
"572 493 CURVE SMOOTH"
);
}
);
width = 1914;
}
);
leftKerningGroup = O;
rightKerningGroup = E;
unicode = 0152;
},
{
glyphname = P;
layers = (
{
anchors = (
{
name = top;
position = "{507, 985}";
}
);
layerId = "1C2BFDD8-856B-473B-8B37-FA70972360C9";
paths = (
{
closed = 1;
nodes = (
"507 0 LINE",
"507 452 LINE",
"936 453 LINE",
"1095 453 OFFCURVE",
"1208 576 OFFCURVE",
"1208 721 CURVE",
"1208 885 OFFCURVE",
"1095 985 OFFCURVE",
"933 985 CURVE",
"40 985 LINE",
"40 0 LINE"
);
},
{
closed = 1;
nodes = (
"507 904 LINE",
"507 904 OFFCURVE",
"556 904 OFFCURVE",
"556 904 CURVE",
"658 904 OFFCURVE",
"741 821 OFFCURVE",
"741 718 CURVE",
"741 616 OFFCURVE",
"658 533 OFFCURVE",
"556 533 CURVE",
"507 533 LINE"
);
}
);
width = 1238;
}
);
leftKerningGroup = H;
rightKerningGroup = P;
unicode = 0050;
},
{
glyphname = Thorn;
layers = (
{
layerId = "1C2BFDD8-856B-473B-8B37-FA70972360C9";
paths = (
{
closed = 1;
nodes = (
"507 0 LINE",
"507 240 LINE",
"936 241 LINE",
"1095 241 OFFCURVE",
"1208 364 OFFCURVE",
"1208 509 CURVE",
"1208 673 OFFCURVE",
"1095 773 OFFCURVE",
"933 773 CURVE",
"507 773 LINE",
"507 985 LINE",
"40 985 LINE",
"40 0 LINE"
);
},
{
closed = 1;
nodes = (
"507 692 LINE",
"507 692 OFFCURVE",
"556 692 OFFCURVE",
"556 692 CURVE",
"658 692 OFFCURVE",
"741 609 OFFCURVE",
"741 506 CURVE",
"741 404 OFFCURVE",
"658 321 OFFCURVE",
"556 321 CURVE",
"507 321 LINE"
);
}
);
width = 1238;
}
);
leftKerningGroup = H;
rightKerningGroup = O;
unicode = 00DE;
},
{
glyphname = Q;
layers = (
{
anchors = (
{
name = top;
position = "{696, 993}";
}
);
layerId = "1C2BFDD8-856B-473B-8B37-FA70972360C9";
paths = (
{
closed = 1;
nodes = (
"1065 -7 OFFCURVE",
"1363 164 OFFCURVE",
"1363 493 CURVE",
"1363 818 OFFCURVE",
"1065 993 OFFCURVE",
"696 993 CURVE",
"328 993 OFFCURVE",
"30 818 OFFCURVE",
"30 493 CURVE",
"30 164 OFFCURVE",
"328 -7 OFFCURVE",
"696 -7 CURVE"
);
},
{
closed = 1;
nodes = (
"656 76 OFFCURVE",
"627 94 OFFCURVE",
"608 129 CURVE",
"591 159 OFFCURVE",
"581 208 OFFCURVE",
"576 274 CURVE",
"573 311 OFFCURVE",
"571 384 OFFCURVE",
"571 493 CURVE",
"571 595 OFFCURVE",
"573 673 OFFCURVE",
"578 728 CURVE",
"582 784 OFFCURVE",
"592 827 OFFCURVE",
"609 857 CURVE",
"628 892 OFFCURVE",
"657 910 OFFCURVE",
"696 910 CURVE",
"736 910 OFFCURVE",
"765 892 OFFCURVE",
"784 857 CURVE",
"801 827 OFFCURVE",
"811 784 OFFCURVE",
"815 728 CURVE",
"819 673 OFFCURVE",
"821 595 OFFCURVE",
"821 493 CURVE",
"821 384 OFFCURVE",
"820 311 OFFCURVE",
"817 274 CURVE",
"812 208 OFFCURVE",
"801 159 OFFCURVE",
"785 129 CURVE",
"766 94 OFFCURVE",
"736 76 OFFCURVE",
"696 76 CURVE"
);
},
{
closed = 1;
nodes = (
"1363 -90 LINE",
"1072 402 LINE",
"851 402 LINE",
"851 62 LINE",
"777 62 LINE",
"815 -32 OFFCURVE",
"934 -90 OFFCURVE",
"1044 -90 CURVE"
);
}
);
width = 1393;
}
);
leftKerningGroup = O;
rightKerningGroup = Q;
unicode = 0051;
},
{
glyphname = R;
layers = (
{
anchors = (
{
name = top;
position = "{507, 985}";
}
);
layerId = "1C2BFDD8-856B-473B-8B37-FA70972360C9";
paths = (
{
closed = 1;
nodes = (
"507 0 LINE",
"507 451 LINE",
"544 450 LINE",
"567 449 OFFCURVE",
"590 446 OFFCURVE",
"613 442 CURVE",
"636 438 OFFCURVE",
"657 430 OFFCURVE",
"676 419 CURVE",
"694 409 OFFCURVE",
"709 394 OFFCURVE",
"721 376 CURVE",
"733 358 OFFCURVE",
"739 335 OFFCURVE",
"739 305 CURVE",
"739 224 LINE",
"739 0 LINE",
"987 0 LINE",
"991 0 LINE",
"1210 0 LINE",
"1210 224 LINE",
"1210 254 LINE",
"1210 355 OFFCURVE",
"1137 440 OFFCURVE",
"1036 468 CURVE",
"1150 497 OFFCURVE",
"1235 609 OFFCURVE",
"1235 730 CURVE",
"1235 871 OFFCURVE",
"1121 985 OFFCURVE",
"980 985 CURVE",
"40 985 LINE",
"40 0 LINE"
);
},
{
closed = 1;
nodes = (
"507 904 LINE",
"556 904 LINE",
"658 904 OFFCURVE",
"741 821 OFFCURVE",
"741 718 CURVE",
"741 616 OFFCURVE",
"658 533 OFFCURVE",
"556 533 CURVE",
"507 532 LINE"
);
}
);
width = 1275;
}
);
leftKerningGroup = H;
rightKerningGroup = R;
unicode = 0052;
},
{
glyphname = S;
layers = (
{
anchors = (
{
name = top;
position = "{572, 993}";
}
);
layerId = "1C2BFDD8-856B-473B-8B37-FA70972360C9";
paths = (
{
closed = 1;
nodes = (
"583 684 LINE",
"443 721 OFFCURVE",
"415 757 OFFCURVE",
"415 802 CURVE",
"415 863 OFFCURVE",
"478 905 OFFCURVE",
"598 905 CURVE",
"803 905 OFFCURVE",
"949 813 OFFCURVE",
"949 813 CURVE",
"996 877 LINE",
"996 877 OFFCURVE",
"821 993 OFFCURVE",
"520 993 CURVE",
"202 993 OFFCURVE",
"30 847 OFFCURVE",
"30 666 CURVE",
"30 519 OFFCURVE",
"144 411 OFFCURVE",
"341 352 CURVE",
"523 298 LINE",
"628 268 OFFCURVE",
"673 228 OFFCURVE",
"673 180 CURVE",
"673 122 OFFCURVE",
"618 89 OFFCURVE",
"505 89 CURVE",
"245 89 OFFCURVE",
"82 228 OFFCURVE",
"82 228 CURVE",
"35 164 LINE",
"35 164 OFFCURVE",
"213 -7 OFFCURVE",
"605 -7 CURVE",
"939 -7 OFFCURVE",
"1116 134 OFFCURVE",
"1116 320 CURVE",
"1116 484 OFFCURVE",
"996 574 OFFCURVE",
"782 631 CURVE"
);
}
);
width = 1146;
}
);
leftKerningGroup = S;
rightKerningGroup = S;
unicode = 0053;
},
{
glyphname = Germandbls;
layers = (
{
layerId = "1C2BFDD8-856B-473B-8B37-FA70972360C9";
paths = (
{
closed = 1;
nodes = (
"534 0 LINE",
"534 727 LINE",
"534 820 OFFCURVE",
"536 910 OFFCURVE",
"618 910 CURVE",
"704 910 OFFCURVE",
"736 820 OFFCURVE",
"736 727 CURVE",
"736 635 OFFCURVE",
"708 532 OFFCURVE",
"605 532 CURVE",
"598 532 OFFCURVE",
"591 532 OFFCURVE",
"584 533 CURVE",
"584 452 LINE",
"605 452 LINE",
"708 452 OFFCURVE",
"791 369 OFFCURVE",
"791 266 CURVE",
"791 164 OFFCURVE",
"708 81 OFFCURVE",
"605 81 CURVE",
"598 81 OFFCURVE",
"591 81 OFFCURVE",
"584 82 CURVE",
"584 0 LINE",
"1030 0 LINE",
"1174 0 OFFCURVE",
"1290 117 OFFCURVE",
"1290 260 CURVE",
"1290 386 OFFCURVE",
"1204 490 OFFCURVE",
"1098 529 CURVE",
"1140 566 OFFCURVE",
"1174 619 OFFCURVE",
"1174 693 CURVE",
"1174 904 OFFCURVE",
"906 993 OFFCURVE",
"618 993 CURVE",
"329 993 OFFCURVE",
"40 924 OFFCURVE",
"40 633 CURVE",
"40 0 LINE"
);
}
);
width = 1335;
}
);
leftKerningGroup = H;
rightKerningGroup = B;
unicode = 1E9E;
},
{
glyphname = T;
layers = (
{
anchors = (
{
name = top;
position = "{647, 985}";
}
);
layerId = "1C2BFDD8-856B-473B-8B37-FA70972360C9";
paths = (
{
closed = 1;
nodes = (
"892 0 LINE",
"892 901 LINE",
"1263 901 LINE",
"1263 985 LINE",
"30 985 LINE",
"30 901 LINE",
"399 901 LINE",
"399 0 LINE"
);
}
);
width = 1293;
}
);
leftKerningGroup = T;
rightKerningGroup = T;
unicode = 0054;
},
{
glyphname = U;
layers = (
{
anchors = (
{
name = top;
position = "{512, 985}";
}
);
layerId = "1C2BFDD8-856B-473B-8B37-FA70972360C9";
paths = (
{
closed = 1;
nodes = (
"832 -7 OFFCURVE",
"984 52 OFFCURVE",
"984 296 CURVE",
"984 296 OFFCURVE",
"984 985 OFFCURVE",
"984 985 CURVE",
"901 985 LINE",
"901 296 LINE",
"901 147 OFFCURVE",
"829 104 OFFCURVE",
"739 104 CURVE",
"649 104 OFFCURVE",
"577 155 OFFCURVE",
"577 296 CURVE",
"577 985 LINE",
"40 985 LINE",
"40 296 LINE",
"40 97 OFFCURVE",
"162 -7 OFFCURVE",
"512 -7 CURVE"
);
}
);
width = 1024;
}
);
leftKerningGroup = U;
rightKerningGroup = U;
unicode = 0055;
},
{
glyphname = V;
layers = (
{
anchors = (
{
name = top;
position = "{593, 985}";
}
);
layerId = "1C2BFDD8-856B-473B-8B37-FA70972360C9";
paths = (
{
closed = 1;
nodes = (
"800 0 LINE",
"1171 985 LINE",
"1063 985 LINE",
"793 259 LINE",
"471 985 LINE",
"15 985 LINE",
"452 0 LINE"
);
}
);
width = 1186;
}
);
leftKerningGroup = V;
rightKerningGroup = V;
unicode = 0056;
},
{
glyphname = W;
layers = (
{
anchors = (
{
name = top;
position = "{1205, 985}";
}
);
layerId = "1C2BFDD8-856B-473B-8B37-FA70972360C9";
paths = (
{
closed = 1;
nodes = (
"837 0 LINE",
"1011 461 LINE",
"1215 0 LINE",
"1641 0 LINE",
"2013 985 LINE",
"1905 985 LINE",
"1634 258 LINE",
"1311 985 LINE",
"1100 985 LINE",
"823 241 LINE",
"493 985 LINE",
"15 985 LINE",
"452 0 LINE"
);
}
);
width = 2028;
}
);
leftKerningGroup = V;
rightKerningGroup = V;
unicode = 0057;
},
{
glyphname = X;
layers = (
{
anchors = (
{
name = top;
position = "{574, 985}";
}
);
layerId = "1C2BFDD8-856B-473B-8B37-FA70972360C9";
paths = (
{
closed = 1;
nodes = (
"148 0 LINE",
"364 392 LINE",
"560 0 LINE",
"1052 0 LINE",
"808 489 LINE",
"1080 985 LINE",
"971 985 LINE",
"756 593 LINE",
"560 985 LINE",
"67 985 LINE",
"312 496 LINE",
"40 0 LINE"
);
}
);
width = 1120;
}
);
leftKerningGroup = X;
rightKerningGroup = X;
unicode = 0058;
},
{
glyphname = Y;
layers = (
{
anchors = (
{
name = top;
position = "{560, 985}";
}
);
layerId = "1C2BFDD8-856B-473B-8B37-FA70972360C9";
paths = (
{
closed = 1;
nodes = (
"827 0 LINE",
"827 452 LINE",
"1089 985 LINE",
"981 985 LINE",
"783 582 LINE",
"581 985 LINE",
"30 985 LINE",
"335 452 LINE",
"335 0 LINE"
);
}
);
width = 1119;
}
);
leftKerningGroup = Y;
rightKerningGroup = Y;
unicode = 0059;
},
{
glyphname = Z;
layers = (
{
anchors = (
{
name = top;
position = "{594, 985}";
}
);
layerId = "1C2BFDD8-856B-473B-8B37-FA70972360C9";
paths = (
{
closed = 1;
nodes = (
"1148 0 LINE",
"1148 82 LINE",
"615 82 LINE",
"1148 985 LINE",
"40 985 LINE",
"40 903 LINE",
"574 903 LINE",
"40 0 LINE"
);
}
);
width = 1188;
}
);
leftKerningGroup = Z;
rightKerningGroup = Z;
unicode = 005A;
},
{
glyphname = j.ss01;
layers = (
{
anchors = (
{
name = top;
position = "{492, 985}";
}
);
layerId = "1C2BFDD8-856B-473B-8B37-FA70972360C9";
paths = (
{
closed = 1;
nodes = (
"637 -7 OFFCURVE",
"759 97 OFFCURVE",
"759 296 CURVE SMOOTH",
"759 985 LINE",
"222 985 LINE",
"222 296 LINE SMOOTH",
"222 155 OFFCURVE",
"150 104 OFFCURVE",
"40 104 CURVE",
"40 9 LINE",
"103 -3 OFFCURVE",
"199 -7 OFFCURVE",
"287 -7 CURVE SMOOTH"
);
}
);
width = 799;
}
);
leftKerningGroup = J;
rightKerningGroup = H;
},
{
glyphname = ordfeminine;
layers = (
{
layerId = "1C2BFDD8-856B-473B-8B37-FA70972360C9";
paths = (
{
closed = 1;
nodes = (
"108 555 LINE",
"150 665 LINE",
"289 665 LINE",
"339 555 LINE",
"571 555 LINE",
"380 985 LINE",
"202 985 LINE",
"40 555 LINE"
);
},
{
closed = 1;
nodes = (
"214 834 LINE",
"262 727 LINE",
"173 727 LINE"
);
}
);
width = 611;
}
);
unicode = 00AA;
},
{
glyphname = ordmasculine;
layers = (
{
layerId = "1C2BFDD8-856B-473B-8B37-FA70972360C9";
paths = (
{
closed = 1;
nodes = (
"491 547 OFFCURVE",
"624 624 OFFCURVE",
"624 770 CURVE",
"624 915 OFFCURVE",
"491 993 OFFCURVE",
"327 993 CURVE",
"163 993 OFFCURVE",
"30 915 OFFCURVE",
"30 770 CURVE",
"30 624 OFFCURVE",
"163 547 OFFCURVE",
"327 547 CURVE"
);
},
{
closed = 1;
nodes = (
"275 608 OFFCURVE",
"261 664 OFFCURVE",
"261 770 CURVE",
"261 876 OFFCURVE",
"275 932 OFFCURVE",
"327 932 CURVE",
"380 932 OFFCURVE",
"394 876 OFFCURVE",
"394 770 CURVE",
"394 664 OFFCURVE",
"380 608 OFFCURVE",
"327 608 CURVE"
);
}
);
width = 654;
}
);
unicode = 00BA;
},
{
glyphname = zero;
layers = (
{
components = (
{
name = slashlongcomb;
transform = "{1, 0, 0, 1, 10, 0}";
}
);
layerId = "1C2BFDD8-856B-473B-8B37-FA70972360C9";
paths = (
{
closed = 1;
nodes = (
"817 -7 OFFCURVE",
"1004 198 OFFCURVE",
"1004 493 CURVE",
"1004 788 OFFCURVE",
"817 993 OFFCURVE",
"517 993 CURVE",
"217 993 OFFCURVE",
"30 788 OFFCURVE",
"30 493 CURVE",
"30 198 OFFCURVE",
"217 -7 OFFCURVE",
"517 -7 CURVE"
);
},
{
closed = 1;
nodes = (
"477 76 OFFCURVE",
"448 94 OFFCURVE",
"429 129 CURVE",
"412 159 OFFCURVE",
"402 202 OFFCURVE",
"398 258 CURVE",
"394 313 OFFCURVE",
"392 391 OFFCURVE",
"392 493 CURVE",
"392 595 OFFCURVE",
"393 673 OFFCURVE",
"398 728 CURVE",
"402 784 OFFCURVE",
"412 827 OFFCURVE",
"429 857 CURVE",
"448 892 OFFCURVE",
"477 910 OFFCURVE",
"517 910 CURVE",
"557 910 OFFCURVE",
"586 892 OFFCURVE",
"605 857 CURVE",
"622 827 OFFCURVE",
"632 784 OFFCURVE",
"636 728 CURVE",
"641 673 OFFCURVE",
"643 595 OFFCURVE",
"643 493 CURVE",
"643 391 OFFCURVE",
"641 313 OFFCURVE",
"636 258 CURVE",
"632 202 OFFCURVE",
"622 159 OFFCURVE",
"605 129 CURVE",
"586 94 OFFCURVE",
"557 76 OFFCURVE",
"517 76 CURVE"
);
}
);
width = 1034;
}
);
leftKerningGroup = "0";
rightKerningGroup = "0";
unicode = 0030;
},
{
glyphname = one;
layers = (
{
layerId = "1C2BFDD8-856B-473B-8B37-FA70972360C9";
paths = (
{
closed = 1;
nodes = (
"662 0 LINE",
"662 985 LINE",
"203 814 LINE",
"203 0 LINE"
);
},
{
closed = 1;
nodes = (
"662 900 LINE",
"662 1000 LINE",
"40 834 LINE",
"40 734 LINE"
);
}
);
width = 702;
}
);
leftKerningGroup = "1";
rightKerningGroup = H;
unicode = 0031;
},
{
glyphname = two;
layers = (
{
layerId = "1C2BFDD8-856B-473B-8B37-FA70972360C9";
paths = (
{
closed = 1;
nodes = (
"949 84 LINE",
"594 84 LINE",
"594 84 OFFCURVE",
"594 84 OFFCURVE",
"810 417 CURVE",
"841 465 OFFCURVE",
"881 540 OFFCURVE",
"894 597 CURVE",
"957 871 OFFCURVE",
"730 993 OFFCURVE",
"514 993 CURVE",
"258 993 OFFCURVE",
"110 859 OFFCURVE",
"76 658 CURVE",
"162 658 LINE",
"174 738 OFFCURVE",
"249 888 OFFCURVE",
"396 888 CURVE",
"466 888 OFFCURVE",
"506 846 OFFCURVE",
"506 786 CURVE",
"506 699 OFFCURVE",
"396 536 OFFCURVE",
"348 464 CURVE",
"40 0 LINE",
"949 0 LINE"
);
}
);
width = 989;
}
);
unicode = 0032;
},
{
glyphname = three;
layers = (
{
layerId = "1C2BFDD8-856B-473B-8B37-FA70972360C9";
paths = (
{
closed = 1;
nodes = (
"846 -8 OFFCURVE",
"1042 138 OFFCURVE",
"1042 361 CURVE",
"1042 505 OFFCURVE",
"959 614 OFFCURVE",
"833 675 CURVE",
"987 977 LINE",
"137 977 LINE",
"137 893 LINE",
"491 893 LINE",
"338 594 LINE",
"581 594 OFFCURVE",
"662 482 OFFCURVE",
"662 345 CURVE",
"662 200 OFFCURVE",
"575 101 OFFCURVE",
"433 101 CURVE",
"289 102 OFFCURVE",
"148 190 OFFCURVE",
"126 375 CURVE",
"40 375 LINE",
"55 157 OFFCURVE",
"216 -8 OFFCURVE",
"536 -8 CURVE"
);
}
);
width = 1082;
}
);
unicode = 0033;
},
{
glyphname = four;
layers = (
{
layerId = "1C2BFDD8-856B-473B-8B37-FA70972360C9";
paths = (
{
closed = 1;
nodes = (
"941 0 LINE",
"941 198 LINE",
"1147 198 LINE",
"1147 282 LINE",
"941 282 LINE",
"941 985 LINE",
"608 985 LINE",
"20 198 LINE",
"472 198 LINE",
"472 0 LINE"
);
},
{
closed = 1;
nodes = (
"472 645 LINE",
"472 282 LINE",
"205 282 LINE"
);
}
);
width = 1177;
}
);
leftKerningGroup = "4";
rightKerningGroup = "4";
unicode = 0034;
},
{
glyphname = five;
layers = (
{
layerId = "1C2BFDD8-856B-473B-8B37-FA70972360C9";
paths = (
{
closed = 1;
nodes = (
"836 -7 OFFCURVE",
"1012 159 OFFCURVE",
"1012 382 CURVE",
"1012 612 OFFCURVE",
"836 731 OFFCURVE",
"526 741 CURVE",
"544 901 LINE",
"905 901 LINE",
"905 985 LINE",
"159 985 LINE",
"93 508 LINE",
"180 504 LINE",
"375 495 OFFCURVE",
"628 487 OFFCURVE",
"628 281 CURVE",
"628 183 OFFCURVE",
"556 102 OFFCURVE",
"424 102 CURVE",
"280 102 OFFCURVE",
"138 191 OFFCURVE",
"116 376 CURVE",
"30 376 LINE",
"45 158 OFFCURVE",
"206 -7 OFFCURVE",
"526 -7 CURVE"
);
}
);
width = 1042;
}
);
leftKerningGroup = "5";
rightKerningGroup = "5";
unicode = 0035;
},
{
glyphname = six;
layers = (
{
layerId = "1C2BFDD8-856B-473B-8B37-FA70972360C9";
paths = (
{
closed = 1;
nodes = (
"783 -7 OFFCURVE",
"997 129 OFFCURVE",
"997 373 CURVE",
"997 578 OFFCURVE",
"816 701 OFFCURVE",
"607 709 CURVE",
"767 985 LINE",
"306 985 LINE",
"306 985 OFFCURVE",
"306 985 OFFCURVE",
"130 680 CURVE",
"58 556 OFFCURVE",
"30 477 OFFCURVE",
"30 392 CURVE",
"30 127 OFFCURVE",
"255 -7 OFFCURVE",
"519 -7 CURVE"
);
},
{
closed = 1;
nodes = (
"490 76 OFFCURVE",
"469 89 OFFCURVE",
"455 114 CURVE",
"443 136 OFFCURVE",
"435 171 OFFCURVE",
"432 218 CURVE",
"430 245 OFFCURVE",
"429 263 OFFCURVE",
"429 341 CURVE",
"429 360 LINE",
"429 438 OFFCURVE",
"430 457 OFFCURVE",
"432 484 CURVE",
"435 531 OFFCURVE",
"443 566 OFFCURVE",
"455 588 CURVE",
"469 613 OFFCURVE",
"490 625 OFFCURVE",
"519 625 CURVE",
"547 625 OFFCURVE",
"568 613 OFFCURVE",
"582 588 CURVE",
"594 566 OFFCURVE",
"602 531 OFFCURVE",
"605 484 CURVE",
"607 457 OFFCURVE",
"608 438 OFFCURVE",
"608 360 CURVE",
"608 341 LINE",
"608 263 OFFCURVE",
"607 245 OFFCURVE",
"605 218 CURVE",
"602 171 OFFCURVE",
"594 136 OFFCURVE",
"582 114 CURVE",
"568 89 OFFCURVE",
"547 76 OFFCURVE",
"519 76 CURVE"
);
}
);
width = 1027;
}
);
leftKerningGroup = "6";
rightKerningGroup = "6";
unicode = 0036;
},
{
glyphname = seven;
layers = (
{
layerId = "1C2BFDD8-856B-473B-8B37-FA70972360C9";
paths = (
{
closed = 1;
nodes = (
"687 0 LINE",
"1059 985 LINE",
"40 985 LINE",
"40 901 LINE",
"545 901 LINE",
"210 0 LINE"
);
}
);
width = 1079;
}
);
leftKerningGroup = T;
rightKerningGroup = V;
unicode = 0037;
},
{
glyphname = eight;
layers = (
{
layerId = "1C2BFDD8-856B-473B-8B37-FA70972360C9";
paths = (
{
closed = 1;
nodes = (
"902 -8 OFFCURVE",
"1166 67 OFFCURVE",
"1166 302 CURVE",
"1166 447 OFFCURVE",
"1068 529 OFFCURVE",
"962 557 CURVE",
"1048 582 OFFCURVE",
"1120 647 OFFCURVE",
"1120 756 CURVE",
"1120 938 OFFCURVE",
"886 992 OFFCURVE",
"603 992 CURVE",
"320 992 OFFCURVE",
"86 938 OFFCURVE",
"86 756 CURVE",
"86 647 OFFCURVE",
"158 582 OFFCURVE",
"244 557 CURVE",
"138 529 OFFCURVE",
"40 447 OFFCURVE",
"40 302 CURVE",
"40 67 OFFCURVE",
"304 -8 OFFCURVE",
"603 -8 CURVE"
);
},
{
closed = 1;
nodes = (
"574 75 OFFCURVE",
"552 86 OFFCURVE",
"539 108 CURVE",
"527 127 OFFCURVE",
"519 157 OFFCURVE",
"515 198 CURVE",
"513 221 OFFCURVE",
"512 239 OFFCURVE",
"512 302 CURVE",
"512 365 OFFCURVE",
"513 384 OFFCURVE",
"515 407 CURVE",
"518 441 OFFCURVE",
"527 468 OFFCURVE",
"539 487 CURVE",
"553 508 OFFCURVE",
"574 519 OFFCURVE",
"603 519 CURVE",
"632 519 OFFCURVE",
"653 508 OFFCURVE",
"667 487 CURVE",
"679 468 OFFCURVE",
"688 441 OFFCURVE",
"691 407 CURVE",
"693 384 OFFCURVE",
"694 365 OFFCURVE",
"694 302 CURVE",
"694 239 OFFCURVE",
"693 221 OFFCURVE",
"691 198 CURVE",
"687 157 OFFCURVE",
"679 127 OFFCURVE",
"667 108 CURVE",
"654 86 OFFCURVE",
"632 75 OFFCURVE",
"603 75 CURVE"
);
},
{
closed = 1;
nodes = (
"576 602 OFFCURVE",
"556 610 OFFCURVE",
"544 627 CURVE",
"522 657 OFFCURVE",
"519 717 OFFCURVE",
"519 749 CURVE",
"519 750 OFFCURVE",
"519 754 OFFCURVE",
"519 755 CURVE",
"519 756 OFFCURVE",
"519 760 OFFCURVE",
"519 761 CURVE",
"519 793 OFFCURVE",
"522 854 OFFCURVE",
"544 883 CURVE",
"556 900 OFFCURVE",
"576 909 OFFCURVE",
"603 909 CURVE",
"630 909 OFFCURVE",
"650 900 OFFCURVE",
"662 883 CURVE",
"684 854 OFFCURVE",
"687 793 OFFCURVE",
"687 761 CURVE",
"687 760 OFFCURVE",
"687 756 OFFCURVE",
"687 755 CURVE",
"687 754 OFFCURVE",
"687 750 OFFCURVE",
"687 749 CURVE",
"687 717 OFFCURVE",
"684 657 OFFCURVE",
"662 627 CURVE",
"650 610 OFFCURVE",
"630 602 OFFCURVE",
"603 602 CURVE"
);
}
);
width = 1206;
}
);
leftKerningGroup = "8";
rightKerningGroup = "8";
unicode = 0038;
},
{
glyphname = nine;
layers = (
{
layerId = "1C2BFDD8-856B-473B-8B37-FA70972360C9";
paths = (
{
closed = 1;
nodes = (
"721 0 LINE",
"721 0 OFFCURVE",
"721 0 OFFCURVE",
"897 305 CURVE",
"969 429 OFFCURVE",
"997 508 OFFCURVE",
"997 593 CURVE",
"997 858 OFFCURVE",
"772 992 OFFCURVE",
"508 992 CURVE",
"244 992 OFFCURVE",
"30 856 OFFCURVE",
"30 612 CURVE",
"30 407 OFFCURVE",
"211 284 OFFCURVE",
"420 276 CURVE",
"260 0 LINE"
);
},
{
closed = 1;
nodes = (
"480 360 OFFCURVE",
"459 372 OFFCURVE",
"445 397 CURVE",
"433 419 OFFCURVE",
"425 454 OFFCURVE",
"422 501 CURVE",
"420 528 OFFCURVE",
"419 547 OFFCURVE",
"419 625 CURVE",
"419 644 LINE",
"419 722 OFFCURVE",
"420 740 OFFCURVE",
"422 767 CURVE",
"425 814 OFFCURVE",
"433 849 OFFCURVE",
"445 871 CURVE",
"459 896 OFFCURVE",
"480 909 OFFCURVE",
"508 909 CURVE",
"537 909 OFFCURVE",
"558 896 OFFCURVE",
"572 871 CURVE",
"584 849 OFFCURVE",
"592 814 OFFCURVE",
"595 767 CURVE",
"597 740 OFFCURVE",
"598 722 OFFCURVE",
"598 644 CURVE",
"598 625 LINE",
"598 547 OFFCURVE",
"597 528 OFFCURVE",
"595 501 CURVE",
"592 454 OFFCURVE",
"584 419 OFFCURVE",
"572 397 CURVE",
"558 372 OFFCURVE",
"537 360 OFFCURVE",
"508 360 CURVE"
);
}
);
width = 1027;
}
);
leftKerningGroup = "9";
unicode = 0039;
},
{
glyphname = onesuperior;
layers = (
{
layerId = "1C2BFDD8-856B-473B-8B37-FA70972360C9";
paths = (
{
closed = 1;
nodes = (
"312 555 LINE",
"312 993 LINE",
"40 920 LINE",
"40 829 LINE",
"111 849 LINE",
"111 555 LINE"
);
}
);
width = 352;
}
);
unicode = 00B9;
},
{
glyphname = twosuperior;
layers = (
{
layerId = "1C2BFDD8-856B-473B-8B37-FA70972360C9";
paths = (
{
closed = 1;
nodes = (
"441 555 LINE",
"441 639 LINE",
"315 639 LINE",
"315 639 OFFCURVE",
"315 639 OFFCURVE",
"380 739 CURVE",
"394 760 OFFCURVE",
"411 793 OFFCURVE",
"417 818 CURVE",
"445 939 OFFCURVE",
"345 993 OFFCURVE",
"249 993 CURVE",
"136 993 OFFCURVE",
"64 935 OFFCURVE",
"49 845 CURVE",
"134 845 LINE",
"142 881 OFFCURVE",
"167 906 OFFCURVE",
"198 906 CURVE",
"216 906 OFFCURVE",
"234 898 OFFCURVE",
"234 875 CURVE",
"234 841 OFFCURVE",
"197 791 OFFCURVE",
"176 760 CURVE",
"40 555 LINE"
);
}
);
width = 481;
}
);
unicode = 00B2;
},
{
glyphname = threesuperior;
layers = (
{
layerId = "1C2BFDD8-856B-473B-8B37-FA70972360C9";
paths = (
{
closed = 1;
nodes = (
"399 547 OFFCURVE",
"486 612 OFFCURVE",
"486 711 CURVE",
"486 775 OFFCURVE",
"449 824 OFFCURVE",
"393 851 CURVE",
"461 985 LINE",
"77 985 LINE",
"77 901 LINE",
"217 901 LINE",
"165 799 LINE",
"253 799 OFFCURVE",
"287 755 OFFCURVE",
"287 704 CURVE",
"287 658 OFFCURVE",
"259 630 OFFCURVE",
"215 630 CURVE",
"171 631 OFFCURVE",
"130 651 OFFCURVE",
"122 717 CURVE",
"40 717 LINE",
"47 620 OFFCURVE",
"118 547 OFFCURVE",
"261 547 CURVE"
);
}
);
width = 526;
}
);
unicode = 00B3;
},
{
glyphname = foursuperior;
layers = (
{
layerId = "1C2BFDD8-856B-473B-8B37-FA70972360C9";
paths = (
{
closed = 1;
nodes = (
"484 555 LINE",
"484 611 LINE",
"574 611 LINE",
"574 695 LINE",
"484 695 LINE",
"484 985 LINE",
"318 985 LINE",
"40 611 LINE",
"279 611 LINE",
"279 555 LINE"
);
},
{
closed = 1;
nodes = (
"279 787 LINE",
"279 695 LINE",
"210 695 LINE"
);
}
);
width = 614;
}
);
unicode = 2074;
},
{
glyphname = fraction;
layers = (
{
layerId = "1C2BFDD8-856B-473B-8B37-FA70972360C9";
paths = (
{
closed = 1;
nodes = (
"297 0 LINE",
"868 985 LINE",
"602 985 LINE",
"30 0 LINE"
);
}
);
width = 898;
}
);
unicode = 2044;
},
{
glyphname = onehalf;
layers = (
{
layerId = "1C2BFDD8-856B-473B-8B37-FA70972360C9";
paths = (
{
closed = 1;
nodes = (
"362 555 LINE",
"362 993 LINE",
"90 920 LINE",
"90 829 LINE",
"161 849 LINE",
"161 555 LINE"
);
},
{
closed = 1;
nodes = (
"1033 0 LINE",
"1033 84 LINE",
"907 84 LINE",
"907 84 OFFCURVE",
"907 84 OFFCURVE",
"972 184 CURVE",
"986 205 OFFCURVE",
"1003 238 OFFCURVE",
"1009 263 CURVE",
"1037 384 OFFCURVE",
"937 438 OFFCURVE",
"841 438 CURVE",
"728 438 OFFCURVE",
"656 380 OFFCURVE",
"641 290 CURVE",
"726 290 LINE",
"734 326 OFFCURVE",
"759 351 OFFCURVE",
"790 351 CURVE",
"808 351 OFFCURVE",
"826 343 OFFCURVE",
"826 320 CURVE",
"826 286 OFFCURVE",
"789 236 OFFCURVE",
"768 205 CURVE",
"632 0 LINE"
);
},
{
closed = 1;
nodes = (
"377 0 LINE",
"948 985 LINE",
"682 985 LINE",
"110 0 LINE"
);
}
);
width = 1133;
}
);
unicode = 00BD;
},
{
glyphname = onequarter;
layers = (
{
layerId = "1C2BFDD8-856B-473B-8B37-FA70972360C9";
paths = (
{
closed = 1;
nodes = (
"377 0 LINE",
"948 985 LINE",
"682 985 LINE",
"110 0 LINE"
);
},
{
closed = 1;
nodes = (
"362 555 LINE",
"362 993 LINE",
"90 920 LINE",
"90 829 LINE",
"161 849 LINE",
"161 555 LINE"
);
},
{
closed = 1;
nodes = (
"977 0 LINE",
"977 56 LINE",
"1067 56 LINE",
"1067 140 LINE",
"977 140 LINE",
"977 430 LINE",
"811 430 LINE",
"533 56 LINE",
"772 56 LINE",
"772 0 LINE"
);
},
{
closed = 1;
nodes = (
"772 232 LINE",
"772 140 LINE",
"703 140 LINE"
);
}
);
width = 1157;
}
);
unicode = 00BC;
},
{
glyphname = threequarters;
layers = (
{
layerId = "1C2BFDD8-856B-473B-8B37-FA70972360C9";
paths = (
{
closed = 1;
nodes = (
"439 547 OFFCURVE",
"526 612 OFFCURVE",
"526 711 CURVE",
"526 775 OFFCURVE",
"489 824 OFFCURVE",
"433 851 CURVE",
"501 985 LINE",
"117 985 LINE",
"117 901 LINE",
"257 901 LINE",
"205 799 LINE",
"293 799 OFFCURVE",
"327 755 OFFCURVE",
"327 704 CURVE",
"327 658 OFFCURVE",
"299 630 OFFCURVE",
"255 630 CURVE",
"211 631 OFFCURVE",
"170 651 OFFCURVE",
"162 717 CURVE",
"80 717 LINE",
"87 620 OFFCURVE",
"158 547 OFFCURVE",
"301 547 CURVE"
);
},
{
closed = 1;
nodes = (
"495 0 LINE",
"1066 985 LINE",
"800 985 LINE",
"228 0 LINE"
);
},
{
closed = 1;
nodes = (
"1095 0 LINE",
"1095 56 LINE",
"1185 56 LINE",
"1185 140 LINE",
"1095 140 LINE",
"1095 430 LINE",
"929 430 LINE",
"651 56 LINE",
"890 56 LINE",
"890 0 LINE"
);
},
{
closed = 1;
nodes = (
"890 232 LINE",
"890 140 LINE",
"821 140 LINE"
);
}
);
width = 1293;
}
);
widthMetricsKey = t;
unicode = 00BE;
},
{
glyphname = period;
layers = (
{
layerId = "1C2BFDD8-856B-473B-8B37-FA70972360C9";
paths = (
{
closed = 1;
nodes = (
"318 0 LINE",
"318 273 LINE",
"40 273 LINE",
"40 0 LINE"
);
}
);
width = 358;
}
);
leftKerningGroup = .;
rightKerningGroup = .;
unicode = 002E;
},
{
glyphname = comma;
layers = (
{
layerId = "1C2BFDD8-856B-473B-8B37-FA70972360C9";
paths = (
{
closed = 1;
nodes = (
"241 -157 LINE",
"318 273 LINE",
"40 273 LINE",
"40 -157 LINE"
);
}
);
width = 358;
}
);
leftKerningGroup = .;
rightKerningGroup = .;
unicode = 002C;
},
{
glyphname = colon;
layers = (
{
layerId = "1C2BFDD8-856B-473B-8B37-FA70972360C9";
paths = (
{
closed = 1;
nodes = (
"328 620 LINE",
"328 893 LINE",
"50 893 LINE",
"50 620 LINE"
);
},
{
closed = 1;
nodes = (
"328 0 LINE",
"328 273 LINE",
"50 273 LINE",
"50 0 LINE"
);
}
);
width = 378;
}
);
leftKerningGroup = H;
rightKerningGroup = H;
unicode = 003A;
},
{
glyphname = semicolon;
layers = (
{
layerId = "1C2BFDD8-856B-473B-8B37-FA70972360C9";
paths = (
{
closed = 1;
nodes = (
"328 620 LINE",
"328 893 LINE",
"50 893 LINE",
"50 620 LINE"
);
},
{
closed = 1;
nodes = (
"251 -157 LINE",
"328 273 LINE",
"50 273 LINE",
"50 -157 LINE"
);
}
);
width = 378;
}
);
leftKerningGroup = H;
rightKerningGroup = H;
unicode = 003B;
},
{
glyphname = exclam;
layers = (
{
layerId = "1C2BFDD8-856B-473B-8B37-FA70972360C9";
paths = (
{
closed = 1;
nodes = (
"445 313 LINE",
"445 985 LINE",
"45 985 LINE",
"45 313 LINE"
);
},
{
closed = 1;
nodes = (
"356 -7 OFFCURVE",
"450 23 OFFCURVE",
"450 128 CURVE",
"450 232 OFFCURVE",
"356 262 OFFCURVE",
"245 262 CURVE",
"134 262 OFFCURVE",
"40 232 OFFCURVE",
"40 128 CURVE",
"40 23 OFFCURVE",
"134 -7 OFFCURVE",
"245 -7 CURVE"
);
}
);
width = 490;
}
);
leftKerningGroup = H;
rightKerningGroup = H;
unicode = 0021;
},
{
glyphname = exclamdown;
layers = (
{
layerId = "1C2BFDD8-856B-473B-8B37-FA70972360C9";
paths = (
{
closed = 1;
nodes = (
"445 0 LINE",
"445 672 LINE",
"45 672 LINE",
"45 0 LINE"
);
},
{
closed = 1;
nodes = (
"356 723 OFFCURVE",
"450 753 OFFCURVE",
"450 857 CURVE",
"450 962 OFFCURVE",
"356 992 OFFCURVE",
"245 992 CURVE",
"134 992 OFFCURVE",
"40 962 OFFCURVE",
"40 857 CURVE",
"40 753 OFFCURVE",
"134 723 OFFCURVE",
"245 723 CURVE"
);
}
);
width = 490;
}
);
unicode = 00A1;
},
{
glyphname = question;
layers = (
{
layerId = "1C2BFDD8-856B-473B-8B37-FA70972360C9";
paths = (
{
closed = 1;
nodes = (
"634 322 LINE",
"656 439 OFFCURVE",
"840 496 OFFCURVE",
"840 688 CURVE",
"840 898 OFFCURVE",
"648 993 OFFCURVE",
"458 993 CURVE",
"202 993 OFFCURVE",
"64 859 OFFCURVE",
"30 658 CURVE",
"116 658 LINE",
"128 738 OFFCURVE",
"208 889 OFFCURVE",
"355 889 CURVE",
"425 889 OFFCURVE",
"465 847 OFFCURVE",
"465 787 CURVE",
"465 629 OFFCURVE",
"234 535 OFFCURVE",
"234 322 CURVE"
);
},
{
closed = 1;
nodes = (
"545 -7 OFFCURVE",
"639 23 OFFCURVE",
"639 128 CURVE",
"639 232 OFFCURVE",
"545 262 OFFCURVE",
"434 262 CURVE",
"323 262 OFFCURVE",
"229 232 OFFCURVE",
"229 128 CURVE",
"229 23 OFFCURVE",
"323 -7 OFFCURVE",
"434 -7 CURVE"
);
}
);
width = 870;
}
);
unicode = 003F;
},
{
glyphname = bullet;
layers = (
{
layerId = "1C2BFDD8-856B-473B-8B37-FA70972360C9";
paths = (
{
closed = 1;
nodes = (
"399 288 OFFCURVE",
"478 381 OFFCURVE",
"478 500 CURVE SMOOTH",
"478 619 OFFCURVE",
"399 712 OFFCURVE",
"269 712 CURVE SMOOTH",
"139 712 OFFCURVE",
"60 619 OFFCURVE",
"60 500 CURVE SMOOTH",
"60 381 OFFCURVE",
"139 288 OFFCURVE",
"269 288 CURVE SMOOTH"
);
}
);
width = 538;
}
);
unicode = 2022;
},
{
glyphname = asterisk;
layers = (
{
layerId = "1C2BFDD8-856B-473B-8B37-FA70972360C9";
paths = (
{
closed = 1;
nodes = (
"613 501 LINE",
"437 744 LINE",
"275 626 LINE",
"451 384 LINE"
);
},
{
closed = 1;
nodes = (
"437 626 LINE",
"275 744 LINE",
"99 501 LINE",
"260 384 LINE"
);
},
{
closed = 1;
nodes = (
"387 780 LINE",
"101 873 LINE",
"40 683 LINE",
"325 590 LINE"
);
},
{
closed = 1;
nodes = (
"456 685 LINE",
"456 985 LINE",
"256 985 LINE",
"256 685 LINE"
);
},
{
closed = 1;
nodes = (
"672 683 LINE",
"610 873 LINE",
"325 780 LINE",
"387 590 LINE"
);
}
);
width = 712;
}
);
unicode = 002A;
},
{
glyphname = numbersign;
layers = (
{
layerId = "1C2BFDD8-856B-473B-8B37-FA70972360C9";
paths = (
{
closed = 1;
nodes = (
"522 0 LINE",
"893 985 LINE",
"464 985 LINE",
"93 0 LINE"
);
},
{
closed = 1;
nodes = (
"1582 233 LINE",
"1582 320 LINE",
"30 320 LINE",
"30 233 LINE"
);
},
{
closed = 1;
nodes = (
"1582 680 LINE",
"1582 767 LINE",
"30 767 LINE",
"30 680 LINE"
);
},
{
closed = 1;
nodes = (
"1148 0 LINE",
"1519 985 LINE",
"1090 985 LINE",
"718 0 LINE"
);
}
);
width = 1612;
}
);
unicode = 0023;
},
{
glyphname = slash;
layers = (
{
layerId = "1C2BFDD8-856B-473B-8B37-FA70972360C9";
paths = (
{
closed = 1;
nodes = (
"319 -157 LINE",
"810 1143 LINE",
"514 1143 LINE",
"30 -157 LINE"
);
}
);
width = 840;
}
);
leftKerningGroup = A;
rightKerningGroup = V;
unicode = 002F;
},
{
glyphname = backslash;
layers = (
{
layerId = "1C2BFDD8-856B-473B-8B37-FA70972360C9";
paths = (
{
closed = 1;
nodes = (
"903 -157 LINE",
"326 1143 LINE",
"30 1143 LINE",
"606 -157 LINE"
);
}
);
width = 933;
}
);
leftKerningGroup = V;
rightKerningGroup = A;
unicode = 005C;
},
{
glyphname = period.ss01;
layers = (
{
layerId = "1C2BFDD8-856B-473B-8B37-FA70972360C9";
paths = (
{
closed = 1;
nodes = (
"260 -6 OFFCURVE",
"308 54 OFFCURVE",
"308 138 CURVE SMOOTH",
"308 222 OFFCURVE",
"260 282 OFFCURVE",
"169 282 CURVE SMOOTH",
"78 282 OFFCURVE",
"30 222 OFFCURVE",
"30 138 CURVE SMOOTH",
"30 54 OFFCURVE",
"78 -6 OFFCURVE",
"169 -6 CURVE SMOOTH"
);
}
);
width = 338;
}
);
leftKerningGroup = .;
rightKerningGroup = .;
},
{
glyphname = parenleft;
layers = (
{
layerId = "1C2BFDD8-856B-473B-8B37-FA70972360C9";
paths = (
{
closed = 1;
nodes = (
"580 -72 LINE",
"397 -72 OFFCURVE",
"378 114 OFFCURVE",
"378 493 CURVE",
"378 871 OFFCURVE",
"397 1058 OFFCURVE",
"580 1058 CURVE",
"580 1143 LINE",
"295 1143 OFFCURVE",
"40 1032 OFFCURVE",
"40 493 CURVE",
"40 -47 OFFCURVE",
"295 -157 OFFCURVE",
"580 -157 CURVE"
);
}
);
width = 460;
}
);
unicode = 0028;
},
{
glyphname = parenright;
layers = (
{
layerId = "1C2BFDD8-856B-473B-8B37-FA70972360C9";
paths = (
{
closed = 1;
nodes = (
"166 -157 OFFCURVE",
"420 -47 OFFCURVE",
"420 493 CURVE",
"420 1032 OFFCURVE",
"166 1143 OFFCURVE",
"-120 1143 CURVE",
"-120 1058 LINE",
"64 1058 OFFCURVE",
"82 871 OFFCURVE",
"82 493 CURVE",
"82 114 OFFCURVE",
"64 -72 OFFCURVE",
"-120 -72 CURVE",
"-120 -157 LINE"
);
}
);
width = 460;
}
);
unicode = 0029;
},
{
glyphname = braceleft;
layers = (
{
layerId = "1C2BFDD8-856B-473B-8B37-FA70972360C9";
paths = (
{
closed = 1;
nodes = (
"500 -157 OFFCURVE",
"580 -157 OFFCURVE",
"580 -157 CURVE",
"580 -72 LINE",
"480 -72 LINE",
"428 -72 OFFCURVE",
"410 -43 OFFCURVE",
"410 13 CURVE",
"406 327 OFFCURVE",
"410 -17 OFFCURVE",
"406 327 CURVE",
"406 416 OFFCURVE",
"358 493 OFFCURVE",
"256 493 CURVE",
"358 493 OFFCURVE",
"406 569 OFFCURVE",
"406 658 CURVE",
"410 1002 OFFCURVE",
"406 658 OFFCURVE",
"410 972 CURVE",
"410 1028 OFFCURVE",
"428 1058 OFFCURVE",
"480 1058 CURVE",
"580 1058 LINE",
"580 1143 LINE",
"580 1143 OFFCURVE",
"500 1143 OFFCURVE",
"378 1143 CURVE",
"256 1143 OFFCURVE",
"130 1070 OFFCURVE",
"130 846 CURVE",
"130 622 OFFCURVE",
"131 539 OFFCURVE",
"40 539 CURVE",
"40 446 LINE",
"131 446 OFFCURVE",
"130 363 OFFCURVE",
"130 139 CURVE",
"130 -85 OFFCURVE",
"256 -157 OFFCURVE",
"378 -157 CURVE"
);
}
);
width = 460;
}
);
unicode = 007B;
},
{
glyphname = braceright;
layers = (
{
layerId = "1C2BFDD8-856B-473B-8B37-FA70972360C9";
paths = (
{
closed = 1;
nodes = (
"-120 -157 OFFCURVE",
"-40 -157 OFFCURVE",
"82 -157 CURVE",
"204 -157 OFFCURVE",
"330 -85 OFFCURVE",
"330 139 CURVE",
"330 363 OFFCURVE",
"329 446 OFFCURVE",
"420 446 CURVE",
"420 539 LINE",
"329 539 OFFCURVE",
"330 622 OFFCURVE",
"330 846 CURVE",
"330 1070 OFFCURVE",
"204 1143 OFFCURVE",
"82 1143 CURVE",
"-40 1143 OFFCURVE",
"-120 1143 OFFCURVE",
"-120 1143 CURVE",
"-120 1058 LINE",
"-20 1058 LINE",
"32 1058 OFFCURVE",
"50 1028 OFFCURVE",
"50 972 CURVE",
"54 658 OFFCURVE",
"50 1002 OFFCURVE",
"54 658 CURVE",
"54 569 OFFCURVE",
"102 493 OFFCURVE",
"204 493 CURVE",
"102 493 OFFCURVE",
"54 416 OFFCURVE",
"54 327 CURVE",
"50 -17 OFFCURVE",
"54 327 OFFCURVE",
"50 13 CURVE",
"50 -43 OFFCURVE",
"32 -72 OFFCURVE",
"-20 -72 CURVE",
"-120 -72 LINE",
"-120 -157 LINE"
);
}
);
width = 460;
}
);
unicode = 007D;
},
{
glyphname = bracketleft;
layers = (
{
layerId = "1C2BFDD8-856B-473B-8B37-FA70972360C9";
paths = (
{
closed = 1;
nodes = (
"540 -157 LINE",
"540 -72 LINE",
"320 -72 LINE",
"320 1058 LINE",
"540 1058 LINE",
"540 1143 LINE",
"40 1143 LINE",
"40 -157 LINE"
);
}
);
width = 380;
}
);
leftKerningGroup = H;
unicode = 005B;
},
{
glyphname = bracketright;
layers = (
{
layerId = "1C2BFDD8-856B-473B-8B37-FA70972360C9";
paths = (
{
closed = 1;
nodes = (
"340 -157 LINE",
"340 1143 LINE",
"-160 1143 LINE",
"-160 1058 LINE",
"60 1058 LINE",
"60 -72 LINE",
"-160 -72 LINE",
"-160 -157 LINE"
);
}
);
width = 380;
}
);
rightKerningGroup = H;
unicode = 005D;
},
{
glyphname = hyphen;
layers = (
{
layerId = "1C2BFDD8-856B-473B-8B37-FA70972360C9";
paths = (
{
closed = 1;
nodes = (
"690 344 LINE",
"690 644 LINE",
"50 644 LINE",
"50 344 LINE"
);
}
);
width = 740;
}
);
leftKerningGroup = "-";
rightKerningGroup = "-";
unicode = 002D;
},
{
glyphname = endash;
layers = (
{
layerId = "1C2BFDD8-856B-473B-8B37-FA70972360C9";
paths = (
{
closed = 1;
nodes = (
"1370 344 LINE",
"1370 644 LINE",
"50 644 LINE",
"50 344 LINE"
);
}
);
width = 1420;
}
);
leftKerningGroup = "-";
rightKerningGroup = "-";
unicode = 2013;
},
{
glyphname = emdash;
layers = (
{
layerId = "1C2BFDD8-856B-473B-8B37-FA70972360C9";
paths = (
{
closed = 1;
nodes = (
"2050 344 LINE",
"2050 644 LINE",
"50 644 LINE",
"50 344 LINE"
);
}
);
width = 2100;
}
);
leftKerningGroup = "-";
rightKerningGroup = "-";
unicode = 2014;
},
{
glyphname = underscore;
layers = (
{
layerId = "1C2BFDD8-856B-473B-8B37-FA70972360C9";
paths = (
{
closed = 1;
nodes = (
"1350 -300 LINE",
"1350 0 LINE",
"30 0 LINE",
"30 -300 LINE"
);
}
);
width = 1380;
}
);
leftKerningGroup = _;
rightKerningGroup = _;
unicode = 005F;
},
{
glyphname = quotedblleft;
layers = (
{
layerId = "1C2BFDD8-856B-473B-8B37-FA70972360C9";
paths = (
{
closed = 1;
nodes = (
"656 555 LINE",
"580 985 LINE",
"378 985 LINE",
"378 555 LINE"
);
},
{
closed = 1;
nodes = (
"318 555 LINE",
"242 985 LINE",
"40 985 LINE",
"40 555 LINE"
);
}
);
width = 696;
}
);
unicode = 201C;
},
{
glyphname = quotedblright;
layers = (
{
layerId = "1C2BFDD8-856B-473B-8B37-FA70972360C9";
paths = (
{
closed = 1;
nodes = (
"656 555 LINE",
"656 985 LINE",
"378 985 LINE",
"455 555 LINE"
);
},
{
closed = 1;
nodes = (
"318 555 LINE",
"318 985 LINE",
"40 985 LINE",
"117 555 LINE"
);
}
);
width = 696;
}
);
unicode = 201D;
},
{
glyphname = quoteright;
layers = (
{
layerId = "1C2BFDD8-856B-473B-8B37-FA70972360C9";
paths = (
{
closed = 1;
nodes = (
"318 555 LINE",
"318 985 LINE",
"40 985 LINE",
"117 555 LINE"
);
}
);
width = 358;
}
);
unicode = 2019;
},
{
glyphname = guillemetleft;
layers = (
{
layerId = "1C2BFDD8-856B-473B-8B37-FA70972360C9";
paths = (
{
closed = 1;
nodes = (
"654 93 LINE",
"477 493 LINE",
"654 893 LINE",
"218 893 LINE",
"40 493 LINE",
"218 93 LINE"
);
},
{
closed = 1;
nodes = (
"1170 93 LINE",
"993 493 LINE",
"1170 893 LINE",
"734 893 LINE",
"557 493 LINE",
"734 93 LINE"
);
}
);
width = 1210;
}
);
unicode = 00AB;
},
{
glyphname = quotedbl;
layers = (
{
layerId = "1C2BFDD8-856B-473B-8B37-FA70972360C9";
paths = (
{
closed = 1;
nodes = (
"621 555 LINE",
"656 985 LINE",
"378 985 LINE",
"412 555 LINE"
);
},
{
closed = 1;
nodes = (
"283 555 LINE",
"318 985 LINE",
"40 985 LINE",
"74 555 LINE"
);
}
);
width = 696;
}
);
unicode = 0022;
},
{
glyphname = quotesingle;
layers = (
{
layerId = "1C2BFDD8-856B-473B-8B37-FA70972360C9";
paths = (
{
closed = 1;
nodes = (
"283 555 LINE",
"318 985 LINE",
"40 985 LINE",
"74 555 LINE"
);
}
);
width = 358;
}
);
unicode = 0027;
},
{
glyphname = cent;
layers = (
{
components = (
{
name = C;
}
);
layerId = "1C2BFDD8-856B-473B-8B37-FA70972360C9";
paths = (
{
closed = 1;
nodes = (
"717 936 LINE",
"717 1143 LINE",
"437 1143 LINE",
"437 936 LINE"
);
},
{
closed = 1;
nodes = (
"717 -157 LINE",
"717 54 LINE",
"437 54 LINE",
"437 -157 LINE"
);
}
);
width = 1135;
}
);
leftKerningGroup = C;
rightKerningGroup = C;
unicode = 00A2;
},
{
glyphname = currency;
layers = (
{
layerId = "1C2BFDD8-856B-473B-8B37-FA70972360C9";
paths = (
{
closed = 1;
nodes = (
"664 193 OFFCURVE",
"798 327 OFFCURVE",
"798 493 CURVE",
"798 659 OFFCURVE",
"664 793 OFFCURVE",
"498 793 CURVE",
"333 793 OFFCURVE",
"198 659 OFFCURVE",
"198 493 CURVE",
"198 327 OFFCURVE",
"333 193 OFFCURVE",
"498 193 CURVE"
);
},
{
closed = 1;
nodes = (
"430 255 LINE",
"260 425 LINE",
"100 265 LINE",
"270 95 LINE"
);
},
{
closed = 1;
nodes = (
"447 303 OFFCURVE",
"400 323 OFFCURVE",
"364 359 CURVE",
"328 395 OFFCURVE",
"308 442 OFFCURVE",
"308 493 CURVE",
"308 544 OFFCURVE",
"328 591 OFFCURVE",
"364 627 CURVE",
"400 663 OFFCURVE",
"447 683 OFFCURVE",
"498 683 CURVE",
"549 683 OFFCURVE",
"597 663 OFFCURVE",
"633 627 CURVE",
"668 591 OFFCURVE",
"688 544 OFFCURVE",
"688 493 CURVE",
"688 442 OFFCURVE",
"668 395 OFFCURVE",
"633 359 CURVE",
"597 323 OFFCURVE",
"549 303 OFFCURVE",
"498 303 CURVE"
);
},
{
closed = 1;
nodes = (
"896 265 LINE",
"736 425 LINE",
"566 255 LINE",
"726 95 LINE"
);
},
{
closed = 1;
nodes = (
"430 731 LINE",
"270 891 LINE",
"100 721 LINE",
"260 561 LINE"
);
},
{
closed = 1;
nodes = (
"896 721 LINE",
"726 891 LINE",
"566 731 LINE",
"736 561 LINE"
);
}
);
width = 996;
}
);
unicode = 00A4;
},
{
glyphname = dollar;
layers = (
{
layerId = "1C2BFDD8-856B-473B-8B37-FA70972360C9";
paths = (
{
closed = 1;
nodes = (
"939 -7 OFFCURVE",
"1116 134 OFFCURVE",
"1116 320 CURVE",
"1116 484 OFFCURVE",
"996 574 OFFCURVE",
"782 631 CURVE",
"583 684 LINE",
"443 721 OFFCURVE",
"415 757 OFFCURVE",
"415 802 CURVE",
"415 863 OFFCURVE",
"478 905 OFFCURVE",
"598 905 CURVE",
"853 905 OFFCURVE",
"1009 773 OFFCURVE",
"1009 773 CURVE",
"1056 837 LINE",
"1056 837 OFFCURVE",
"891 993 OFFCURVE",
"520 993 CURVE",
"202 993 OFFCURVE",
"30 847 OFFCURVE",
"30 666 CURVE",
"30 519 OFFCURVE",
"144 411 OFFCURVE",
"341 352 CURVE",
"523 298 LINE",
"628 268 OFFCURVE",
"673 228 OFFCURVE",
"673 180 CURVE",
"673 122 OFFCURVE",
"618 89 OFFCURVE",
"505 89 CURVE",
"245 89 OFFCURVE",
"82 228 OFFCURVE",
"82 228 CURVE",
"35 164 LINE",
"35 164 OFFCURVE",
"213 -7 OFFCURVE",
"605 -7 CURVE"
);
},
{
closed = 1;
nodes = (
"506 -157 LINE",
"506 452 LINE",
"226 452 LINE",
"226 -157 LINE"
);
},
{
closed = 1;
nodes = (
"902 -157 LINE",
"902 70 LINE",
"622 70 LINE",
"622 -157 LINE"
);
},
{
closed = 1;
nodes = (
"496 907 LINE",
"496 1143 LINE",
"216 1143 LINE",
"216 907 LINE"
);
},
{
closed = 1;
nodes = (
"900 522 LINE",
"900 1143 LINE",
"620 1143 LINE",
"620 522 LINE"
);
}
);
width = 1146;
}
);
leftKerningGroup = S;
rightKerningGroup = S;
unicode = 0024;
},
{
glyphname = euro;
layers = (
{
layerId = "1C2BFDD8-856B-473B-8B37-FA70972360C9";
paths = (
{
closed = 1;
nodes = (
"877 -7 OFFCURVE",
"1003 2 OFFCURVE",
"1096 126 CURVE",
"1144 190 OFFCURVE",
"1181 275 OFFCURVE",
"1195 385 CURVE",
"1109 385 LINE",
"1087 244 OFFCURVE",
"1014 92 OFFCURVE",
"861 92 CURVE",
"789 92 OFFCURVE",
"735 137 OFFCURVE",
"701 228 CURVE",
"674 297 OFFCURVE",
"661 386 OFFCURVE",
"661 493 CURVE",
"661 559 OFFCURVE",
"666 619 OFFCURVE",
"677 675 CURVE",
"691 741 OFFCURVE",
"711 792 OFFCURVE",
"738 829 CURVE",
"770 872 OFFCURVE",
"811 894 OFFCURVE",
"861 894 CURVE",
"1036 894 OFFCURVE",
"1091 705 OFFCURVE",
"1100 601 CURVE",
"1180 601 LINE",
"1175 691 OFFCURVE",
"1144 807 OFFCURVE",
"1074 886 CURVE",
"990 982 OFFCURVE",
"857 993 OFFCURVE",
"691 993 CURVE",
"505 993 OFFCURVE",
"374 977 OFFCURVE",
"261 864 CURVE",
"178 781 OFFCURVE",
"140 655 OFFCURVE",
"140 493 CURVE",
"140 336 OFFCURVE",
"185 213 OFFCURVE",
"275 123 CURVE",
"366 32 OFFCURVE",
"482 -7 OFFCURVE",
"691 -7 CURVE"
);
},
{
closed = 1;
nodes = (
"865 377 LINE",
"890 461 LINE",
"40 461 LINE",
"40 377 LINE"
);
},
{
closed = 1;
nodes = (
"910 525 LINE",
"935 609 LINE",
"40 609 LINE",
"40 525 LINE"
);
}
);
width = 1235;
}
);
leftKerningGroup = C;
rightKerningGroup = C;
unicode = 20AC;
},
{
glyphname = sterling;
layers = (
{
layerId = "1C2BFDD8-856B-473B-8B37-FA70972360C9";
paths = (
{
closed = 1;
nodes = (
"480 0 LINE",
"480 1 OFFCURVE",
"493 36 OFFCURVE",
"518 110 CURVE SMOOTH",
"548 200 OFFCURVE",
"599 372 OFFCURVE",
"546 557 CURVE SMOOTH",
"522 639 OFFCURVE",
"499 714 OFFCURVE",
"503 772 CURVE SMOOTH",
"509 848 OFFCURVE",
"557 896 OFFCURVE",
"643 896 CURVE SMOOTH",
"734 896 OFFCURVE",
"794 850 OFFCURVE",
"834 797 CURVE",
"912 835 LINE",
"843 933 OFFCURVE",
"726 993 OFFCURVE",
"541 993 CURVE SMOOTH",
"181 993 OFFCURVE",
"84 786 OFFCURVE",
"131 557 CURVE SMOOTH",
"169 370 OFFCURVE",
"147 282 OFFCURVE",
"90 110 CURVE SMOOTH",
"65 36 OFFCURVE",
"52 0 OFFCURVE",
"50 0 CURVE"
);
},
{
closed = 1;
nodes = (
"956 0 LINE",
"956 84 LINE",
"230 84 LINE",
"230 0 LINE"
);
},
{
closed = 1;
nodes = (
"806 453 LINE",
"806 537 LINE",
"50 537 LINE",
"50 453 LINE"
);
}
);
width = 1006;
}
);
unicode = 00A3;
},
{
glyphname = yen;
layers = (
{
layerId = "1C2BFDD8-856B-473B-8B37-FA70972360C9";
paths = (
{
closed = 1;
nodes = (
"796 0 LINE",
"796 400 LINE",
"1017 985 LINE",
"908 985 LINE",
"739 529 LINE",
"536 985 LINE",
"40 985 LINE",
"300 400 LINE",
"300 0 LINE"
);
},
{
closed = 1;
nodes = (
"1010 252 LINE",
"1010 336 LINE",
"70 336 LINE",
"70 252 LINE"
);
},
{
closed = 1;
nodes = (
"1010 400 LINE",
"1010 484 LINE",
"70 484 LINE",
"70 400 LINE"
);
}
);
width = 1057;
}
);
leftKerningGroup = H;
rightKerningGroup = H;
unicode = 00A5;
},
{
glyphname = cent.ss01;
layers = (
{
components = (
{
name = C;
}
);
layerId = "1C2BFDD8-856B-473B-8B37-FA70972360C9";
paths = (
{
closed = 1;
nodes = (
"619 936 LINE",
"619 1143 LINE",
"535 1143 LINE",
"535 936 LINE"
);
},
{
closed = 1;
nodes = (
"619 -157 LINE",
"619 54 LINE",
"535 54 LINE",
"535 -157 LINE"
);
}
);
width = 1135;
}
);
},
{
glyphname = dollar.ss01;
layers = (
{
layerId = "1C2BFDD8-856B-473B-8B37-FA70972360C9";
paths = (
{
closed = 1;
nodes = (
"939 -7 OFFCURVE",
"1116 134 OFFCURVE",
"1116 320 CURVE",
"1116 484 OFFCURVE",
"996 574 OFFCURVE",
"782 631 CURVE",
"583 684 LINE",
"443 721 OFFCURVE",
"415 757 OFFCURVE",
"415 802 CURVE",
"415 863 OFFCURVE",
"478 905 OFFCURVE",
"598 905 CURVE",
"853 905 OFFCURVE",
"1009 773 OFFCURVE",
"1009 773 CURVE",
"1056 837 LINE",
"1056 837 OFFCURVE",
"891 993 OFFCURVE",
"520 993 CURVE",
"202 993 OFFCURVE",
"30 847 OFFCURVE",
"30 666 CURVE",
"30 519 OFFCURVE",
"144 411 OFFCURVE",
"341 352 CURVE",
"523 298 LINE",
"628 268 OFFCURVE",
"673 228 OFFCURVE",
"673 180 CURVE",
"673 122 OFFCURVE",
"618 89 OFFCURVE",
"505 89 CURVE",
"245 89 OFFCURVE",
"82 228 OFFCURVE",
"82 228 CURVE",
"35 164 LINE",
"35 164 OFFCURVE",
"213 -7 OFFCURVE",
"605 -7 CURVE"
);
},
{
closed = 1;
nodes = (
"425 -157 LINE",
"425 452 LINE",
"341 452 LINE",
"341 -157 LINE"
);
},
{
closed = 1;
nodes = (
"787 -157 LINE",
"787 70 LINE",
"703 70 LINE",
"703 -157 LINE"
);
},
{
closed = 1;
nodes = (
"415 907 LINE",
"415 1143 LINE",
"331 1143 LINE",
"331 907 LINE"
);
},
{
closed = 1;
nodes = (
"785 522 LINE",
"785 1143 LINE",
"701 1143 LINE",
"701 522 LINE"
);
}
);
width = 1146;
}
);
leftKerningGroup = S;
rightKerningGroup = S;
},
{
glyphname = divisionslash;
layers = (
{
layerId = "1C2BFDD8-856B-473B-8B37-FA70972360C9";
paths = (
{
closed = 1;
nodes = (
"319 -157 LINE",
"810 1143 LINE",
"514 1143 LINE",
"30 -157 LINE"
);
}
);
width = 840;
}
);
leftKerningGroup = A;
rightKerningGroup = V;
unicode = 2215;
},
{
glyphname = plus;
layers = (
{
layerId = "1C2BFDD8-856B-473B-8B37-FA70972360C9";
paths = (
{
closed = 1;
nodes = (
"650 93 LINE",
"650 893 LINE",
"350 893 LINE",
"350 93 LINE"
);
},
{
closed = 1;
nodes = (
"900 343 LINE",
"900 643 LINE",
"100 643 LINE",
"100 343 LINE"
);
}
);
width = 1000;
}
);
leftKerningGroup = "-";
rightKerningGroup = "-";
unicode = 002B;
},
{
glyphname = minus;
layers = (
{
layerId = "1C2BFDD8-856B-473B-8B37-FA70972360C9";
paths = (
{
closed = 1;
nodes = (
"900 343 LINE",
"900 643 LINE",
"100 643 LINE",
"100 343 LINE"
);
}
);
width = 1000;
}
);
leftKerningGroup = "-";
rightKerningGroup = "-";
unicode = 2212;
},
{
glyphname = multiply;
layers = (
{
layerId = "1C2BFDD8-856B-473B-8B37-FA70972360C9";
paths = (
{
closed = 1;
nodes = (
"836 295 LINE",
"270 861 LINE",
"100 691 LINE",
"666 125 LINE"
);
},
{
closed = 1;
nodes = (
"836 691 LINE",
"666 861 LINE",
"100 295 LINE",
"270 125 LINE"
);
}
);
width = 936;
}
);
leftKerningGroup = "-";
rightKerningGroup = "-";
unicode = 00D7;
},
{
glyphname = divide;
layers = (
{
layerId = "1C2BFDD8-856B-473B-8B37-FA70972360C9";
paths = (
{
closed = 1;
nodes = (
"900 373 LINE",
"900 613 LINE",
"100 613 LINE",
"100 373 LINE"
);
},
{
closed = 1;
nodes = (
"566 87 OFFCURVE",
"628 126 OFFCURVE",
"628 208 CURVE",
"628 290 OFFCURVE",
"566 329 OFFCURVE",
"500 329 CURVE",
"435 329 OFFCURVE",
"373 290 OFFCURVE",
"373 208 CURVE",
"373 126 OFFCURVE",
"435 87 OFFCURVE",
"500 87 CURVE"
);
},
{
closed = 1;
nodes = (
"566 657 OFFCURVE",
"628 696 OFFCURVE",
"628 778 CURVE",
"628 860 OFFCURVE",
"566 899 OFFCURVE",
"500 899 CURVE",
"435 899 OFFCURVE",
"373 860 OFFCURVE",
"373 778 CURVE",
"373 696 OFFCURVE",
"435 657 OFFCURVE",
"500 657 CURVE"
);
}
);
width = 1000;
}
);
leftKerningGroup = "-";
rightKerningGroup = "-";
unicode = 00F7;
},
{
glyphname = equal;
layers = (
{
layerId = "1C2BFDD8-856B-473B-8B37-FA70972360C9";
paths = (
{
closed = 1;
nodes = (
"1000 563 LINE",
"1000 843 LINE",
"100 843 LINE",
"100 563 LINE"
);
},
{
closed = 1;
nodes = (
"1000 145 LINE",
"1000 425 LINE",
"100 425 LINE",
"100 145 LINE"
);
}
);
width = 1100;
}
);
leftKerningGroup = "-";
rightKerningGroup = "-";
unicode = 003D;
},
{
glyphname = greater;
layers = (
{
layerId = "1C2BFDD8-856B-473B-8B37-FA70972360C9";
paths = (
{
closed = 1;
nodes = (
"885 361 LINE",
"885 624 LINE",
"809 640 LINE",
"726 633 LINE",
"100 430 LINE",
"100 93 LINE"
);
},
{
closed = 1;
nodes = (
"885 624 LINE",
"100 893 LINE",
"100 790 LINE",
"885 521 LINE"
);
}
);
width = 985;
}
);
unicode = 003E;
},
{
glyphname = less;
layers = (
{
layerId = "1C2BFDD8-856B-473B-8B37-FA70972360C9";
paths = (
{
closed = 1;
nodes = (
"259 353 LINE",
"884 555 LINE",
"884 893 LINE",
"100 624 LINE",
"100 361 LINE",
"175 346 LINE"
);
},
{
closed = 1;
nodes = (
"884 195 LINE",
"100 464 LINE",
"100 361 LINE",
"884 93 LINE"
);
}
);
width = 984;
}
);
unicode = 003C;
},
{
glyphname = greaterequal;
layers = (
{
layerId = "1C2BFDD8-856B-473B-8B37-FA70972360C9";
paths = (
{
closed = 1;
nodes = (
"740 48 LINE",
"740 258 LINE",
"100 258 LINE",
"100 48 LINE"
);
},
{
closed = 1;
nodes = (
"740 538 LINE",
"740 758 LINE",
"100 977 LINE",
"100 701 LINE",
"521 565 LINE",
"100 421 LINE",
"100 318 LINE"
);
}
);
width = 840;
}
);
leftKerningGroup = H;
rightKerningGroup = H;
unicode = 2265;
},
{
glyphname = lessequal;
layers = (
{
layerId = "1C2BFDD8-856B-473B-8B37-FA70972360C9";
paths = (
{
closed = 1;
nodes = (
"740 421 LINE",
"320 565 LINE",
"740 701 LINE",
"740 977 LINE",
"100 758 LINE",
"100 538 LINE",
"740 318 LINE"
);
},
{
closed = 1;
nodes = (
"740 48 LINE",
"740 258 LINE",
"100 258 LINE",
"100 48 LINE"
);
}
);
width = 840;
}
);
leftKerningGroup = H;
rightKerningGroup = H;
unicode = 2264;
},
{
glyphname = plusminus;
layers = (
{
layerId = "1C2BFDD8-856B-473B-8B37-FA70972360C9";
paths = (
{
closed = 1;
nodes = (
"740 538 LINE",
"740 758 LINE",
"100 758 LINE",
"100 538 LINE"
);
},
{
closed = 1;
nodes = (
"740 48 LINE",
"740 258 LINE",
"100 258 LINE",
"100 48 LINE"
);
},
{
closed = 1;
nodes = (
"530 338 LINE",
"530 958 LINE",
"310 958 LINE",
"310 338 LINE"
);
}
);
width = 840;
}
);
leftKerningGroup = H;
rightKerningGroup = H;
unicode = 00B1;
},
{
glyphname = asciitilde;
layers = (
{
layerId = "1C2BFDD8-856B-473B-8B37-FA70972360C9";
paths = (
{
closed = 1;
nodes = (
"929 288 OFFCURVE",
"1009 368 OFFCURVE",
"1009 368 CURVE",
"1009 648 LINE",
"1009 648 OFFCURVE",
"929 588 OFFCURVE",
"769 588 CURVE",
"589 588 OFFCURVE",
"470 700 OFFCURVE",
"290 700 CURVE",
"130 700 OFFCURVE",
"50 620 OFFCURVE",
"50 620 CURVE",
"50 340 LINE",
"50 340 OFFCURVE",
"130 400 OFFCURVE",
"290 400 CURVE",
"470 400 OFFCURVE",
"589 288 OFFCURVE",
"769 288 CURVE"
);
}
);
width = 1059;
}
);
leftKerningGroup = "-";
rightKerningGroup = "-";
unicode = 007E;
},
{
glyphname = logicalnot;
layers = (
{
layerId = "1C2BFDD8-856B-473B-8B37-FA70972360C9";
paths = (
{
closed = 1;
nodes = (
"900 344 LINE",
"900 644 LINE",
"100 644 LINE",
"100 344 LINE"
);
},
{
closed = 1;
nodes = (
"900 94 LINE",
"900 644 LINE",
"600 644 LINE",
"600 94 LINE"
);
}
);
width = 1000;
}
);
leftKerningGroup = "-";
rightKerningGroup = H;
unicode = 00AC;
},
{
glyphname = asciicircum;
layers = (
{
layerId = "1C2BFDD8-856B-473B-8B37-FA70972360C9";
paths = (
{
closed = 1;
nodes = (
"376 345 LINE",
"541 855 LINE",
"547 924 LINE",
"534 985 LINE",
"259 985 LINE",
"40 345 LINE"
);
},
{
closed = 1;
nodes = (
"759 345 LINE",
"539 985 LINE",
"437 985 LINE",
"656 345 LINE"
);
}
);
width = 799;
}
);
unicode = 005E;
},
{
glyphname = micro;
layers = (
{
anchors = (
{
name = top;
position = "{512, 985}";
}
);
layerId = "1C2BFDD8-856B-473B-8B37-FA70972360C9";
paths = (
{
closed = 1;
nodes = (
"832 -7 OFFCURVE",
"984 52 OFFCURVE",
"984 296 CURVE",
"984 296 OFFCURVE",
"984 985 OFFCURVE",
"984 985 CURVE",
"901 985 LINE",
"901 296 LINE",
"901 147 OFFCURVE",
"829 104 OFFCURVE",
"739 104 CURVE",
"649 104 OFFCURVE",
"577 155 OFFCURVE",
"577 296 CURVE",
"577 985 LINE",
"40 985 LINE",
"40 296 LINE",
"40 97 OFFCURVE",
"162 -7 OFFCURVE",
"512 -7 CURVE"
);
},
{
closed = 1;
nodes = (
"123 -90 LINE",
"123 529 LINE",
"40 529 LINE",
"40 -90 LINE"
);
}
);
width = 1024;
}
);
leftKerningGroup = U;
rightKerningGroup = U;
unicode = 00B5;
},
{
glyphname = percent;
layers = (
{
components = (
{
name = fraction;
transform = "{1, 0, 0, 1, 539, 0}";
}
);
layerId = "1C2BFDD8-856B-473B-8B37-FA70972360C9";
paths = (
{
closed = 1;
nodes = (
"669 378 OFFCURVE",
"850 482 OFFCURVE",
"850 681 CURVE",
"850 879 OFFCURVE",
"669 985 OFFCURVE",
"445 985 CURVE",
"222 985 OFFCURVE",
"40 879 OFFCURVE",
"40 681 CURVE",
"40 482 OFFCURVE",
"222 378 OFFCURVE",
"445 378 CURVE"
);
},
{
closed = 1;
nodes = (
"373 461 OFFCURVE",
"355 537 OFFCURVE",
"355 681 CURVE",
"355 826 OFFCURVE",
"373 902 OFFCURVE",
"445 902 CURVE",
"518 902 OFFCURVE",
"535 826 OFFCURVE",
"535 681 CURVE",
"535 537 OFFCURVE",
"518 461 OFFCURVE",
"445 461 CURVE"
);
},
{
closed = 1;
nodes = (
"1305 901 LINE",
"1305 985 LINE",
"445 985 LINE",
"445 931 LINE",
"571 901 LINE"
);
},
{
closed = 1;
nodes = (
"1759 0 OFFCURVE",
"1940 104 OFFCURVE",
"1940 304 CURVE",
"1940 501 OFFCURVE",
"1759 607 OFFCURVE",
"1535 607 CURVE",
"1312 607 OFFCURVE",
"1130 501 OFFCURVE",
"1130 304 CURVE",
"1130 104 OFFCURVE",
"1312 0 OFFCURVE",
"1535 0 CURVE"
);
},
{
closed = 1;
nodes = (
"1463 83 OFFCURVE",
"1445 159 OFFCURVE",
"1445 304 CURVE",
"1445 448 OFFCURVE",
"1463 524 OFFCURVE",
"1535 524 CURVE",
"1607 524 OFFCURVE",
"1625 448 OFFCURVE",
"1625 304 CURVE",
"1625 159 OFFCURVE",
"1607 83 OFFCURVE",
"1535 83 CURVE"
);
}
);
width = 1980;
}
);
unicode = 0025;
},
{
glyphname = asciitilde.ss01;
layers = (
{
layerId = "1C2BFDD8-856B-473B-8B37-FA70972360C9";
paths = (
{
closed = 1;
nodes = (
"570 339 LINE",
"1027 94 LINE",
"1485 340 LINE",
"2016 94 LINE",
"2016 372 LINE",
"1736 494 LINE",
"2016 616 LINE",
"2016 894 LINE",
"1485 648 LINE",
"1027 894 LINE",
"570 649 LINE",
"40 894 LINE",
"40 616 LINE",
"320 494 LINE",
"40 372 LINE",
"40 94 LINE"
);
}
);
width = 2056;
}
);
},
{
glyphname = rightArrow;
layers = (
{
layerId = "1C2BFDD8-856B-473B-8B37-FA70972360C9";
paths = (
{
closed = 1;
nodes = (
"2850 494 LINE",
"2050 894 LINE",
"2050 94 LINE"
);
},
{
closed = 1;
nodes = (
"2050 344 LINE",
"2050 644 LINE",
"50 644 LINE",
"50 344 LINE"
);
}
);
width = 2890;
}
);
unicode = 2192;
},
{
glyphname = leftArrow;
layers = (
{
layerId = "1C2BFDD8-856B-473B-8B37-FA70972360C9";
paths = (
{
closed = 1;
nodes = (
"840 894 LINE",
"40 494 LINE",
"840 94 LINE"
);
},
{
closed = 1;
nodes = (
"2840 644 LINE",
"840 644 LINE",
"840 344 LINE",
"2840 344 LINE"
);
}
);
width = 2890;
}
);
unicode = 2190;
},
{
glyphname = at;
layers = (
{
layerId = "1C2BFDD8-856B-473B-8B37-FA70972360C9";
paths = (
{
closed = 1;
nodes = (
"602 -7 OFFCURVE",
"660 4 OFFCURVE",
"715 24 CURVE",
"670 125 LINE",
"629 111 OFFCURVE",
"586 103 OFFCURVE",
"540 103 CURVE",
"325 103 OFFCURVE",
"150 278 OFFCURVE",
"150 493 CURVE",
"150 708 OFFCURVE",
"325 883 OFFCURVE",
"540 883 CURVE",
"756 883 OFFCURVE",
"930 708 OFFCURVE",
"930 493 CURVE",
"930 467 OFFCURVE",
"928 442 OFFCURVE",
"923 418 CURVE",
"760 418 LINE",
"627 718 LINE",
"456 718 LINE",
"302 308 LINE",
"367 308 LINE",
"407 413 LINE",
"540 413 LINE",
"587 308 LINE",
"1005 308 LINE",
"1028 365 OFFCURVE",
"1040 428 OFFCURVE",
"1040 493 CURVE",
"1040 769 OFFCURVE",
"816 993 OFFCURVE",
"540 993 CURVE",
"264 993 OFFCURVE",
"40 769 OFFCURVE",
"40 493 CURVE",
"40 217 OFFCURVE",
"264 -7 OFFCURVE",
"540 -7 CURVE"
);
},
{
closed = 1;
nodes = (
"467 574 LINE",
"513 472 LINE",
"429 472 LINE"
);
}
);
width = 1080;
}
);
leftKerningGroup = "0";
rightKerningGroup = "0";
unicode = 0040;
},
{
glyphname = ampersand;
layers = (
{
layerId = "1C2BFDD8-856B-473B-8B37-FA70972360C9";
paths = (
{
closed = 1;
nodes = (
"1272 -7 OFFCURVE",
"1424 175 OFFCURVE",
"1424 628 CURVE",
"1023 628 LINE",
"1023 180 OFFCURVE",
"754 89 OFFCURVE",
"629 89 CURVE",
"502 89 OFFCURVE",
"453 151 OFFCURVE",
"453 318 CURVE",
"453 507 OFFCURVE",
"506 546 OFFCURVE",
"629 546 CURVE",
"534 631 LINE",
"249 631 OFFCURVE",
"50 560 OFFCURVE",
"50 328 CURVE",
"50 62 OFFCURVE",
"269 -7 OFFCURVE",
"729 -7 CURVE"
);
},
{
closed = 1;
nodes = (
"1165 -90 LINE",
"861 661 LINE SMOOTH",
"813 778 OFFCURVE",
"749 903 OFFCURVE",
"858 903 CURVE SMOOTH",
"974 903 OFFCURVE",
"1006 781 OFFCURVE",
"1006 781 CURVE",
"1082 781 LINE",
"1082 781 OFFCURVE",
"1054 993 OFFCURVE",
"749 993 CURVE SMOOTH",
"529 993 OFFCURVE",
"292 911 OFFCURVE",
"411 615 CURVE SMOOTH",
"628 62 LINE",
"666 -32 OFFCURVE",
"786 -90 OFFCURVE",
"896 -90 CURVE SMOOTH"
);
}
);
width = 1474;
}
);
leftKerningGroup = O;
rightKerningGroup = O;
unicode = 0026;
},
{
glyphname = paragraph;
layers = (
{
layerId = "1C2BFDD8-856B-473B-8B37-FA70972360C9";
paths = (
{
closed = 1;
nodes = (
"948 -157 LINE",
"948 1142 LINE",
"395 1142 LINE",
"203 1142 OFFCURVE",
"40 1007 OFFCURVE",
"40 801 CURVE",
"40 595 OFFCURVE",
"200 462 OFFCURVE",
"392 462 CURVE",
"518 461 LINE",
"518 -157 LINE"
);
},
{
closed = 1;
nodes = (
"1308 -158 LINE",
"1308 1142 LINE",
"1028 1142 LINE",
"1028 -158 LINE"
);
}
);
width = 1348;
}
);
leftKerningGroup = V;
rightKerningGroup = H;
unicode = 00B6;
},
{
glyphname = section;
layers = (
{
layerId = "1C2BFDD8-856B-473B-8B37-FA70972360C9";
paths = (
{
closed = 1;
nodes = (
"1051 -165 OFFCURVE",
"1207 -35 OFFCURVE",
"1207 152 CURVE",
"1207 329 OFFCURVE",
"1058 338 OFFCURVE",
"895 378 CURVE",
"346 492 LINE",
"281 508 OFFCURVE",
"242 551 OFFCURVE",
"245 604 CURVE",
"253 712 OFFCURVE",
"504 751 OFFCURVE",
"628 751 CURVE",
"590 815 LINE",
"252 815 OFFCURVE",
"40 694 OFFCURVE",
"40 488 CURVE",
"40 335 OFFCURVE",
"163 234 OFFCURVE",
"316 193 CURVE",
"622 127 LINE",
"682 111 OFFCURVE",
"721 69 OFFCURVE",
"715 15 CURVE",
"708 -41 OFFCURVE",
"673 -76 OFFCURVE",
"546 -76 CURVE",
"320 -76 OFFCURVE",
"94 4 OFFCURVE",
"94 4 CURVE",
"71 -74 LINE",
"71 -74 OFFCURVE",
"321 -165 OFFCURVE",
"667 -165 CURVE"
);
},
{
closed = 1;
nodes = (
"1001 171 OFFCURVE",
"1217 292 OFFCURVE",
"1217 498 CURVE",
"1217 656 OFFCURVE",
"1068 745 OFFCURVE",
"905 784 CURVE",
"556 858 LINE",
"491 874 OFFCURVE",
"452 918 OFFCURVE",
"455 970 CURVE",
"460 1039 OFFCURVE",
"514 1067 OFFCURVE",
"638 1067 CURVE",
"833 1067 OFFCURVE",
"1014 1001 OFFCURVE",
"1014 1001 CURVE",
"1036 1075 LINE",
"1036 1075 OFFCURVE",
"841 1151 OFFCURVE",
"540 1151 CURVE",
"202 1151 OFFCURVE",
"50 1020 OFFCURVE",
"50 834 CURVE",
"50 662 OFFCURVE",
"173 640 OFFCURVE",
"326 599 CURVE",
"882 483 LINE",
"942 467 OFFCURVE",
"981 426 OFFCURVE",
"975 372 CURVE",
"962 262 OFFCURVE",
"683 280 OFFCURVE",
"556 280 CURVE",
"617 171 LINE"
);
}
);
width = 1257;
}
);
leftKerningGroup = H;
rightKerningGroup = H;
unicode = 00A7;
},
{
glyphname = copyright;
layers = (
{
layerId = "1C2BFDD8-856B-473B-8B37-FA70972360C9";
paths = (
{
closed = 1;
nodes = (
"816 -7 OFFCURVE",
"1040 217 OFFCURVE",
"1040 493 CURVE",
"1040 769 OFFCURVE",
"816 993 OFFCURVE",
"540 993 CURVE",
"264 993 OFFCURVE",
"40 769 OFFCURVE",
"40 493 CURVE",
"40 217 OFFCURVE",
"264 -7 OFFCURVE",
"540 -7 CURVE"
);
},
{
closed = 1;
nodes = (
"325 103 OFFCURVE",
"150 278 OFFCURVE",
"150 493 CURVE",
"150 708 OFFCURVE",
"325 883 OFFCURVE",
"540 883 CURVE",
"755 883 OFFCURVE",
"930 708 OFFCURVE",
"930 493 CURVE",
"930 278 OFFCURVE",
"755 103 OFFCURVE",
"540 103 CURVE"
);
},
{
closed = 1;
nodes = (
"641 252 OFFCURVE",
"701 257 OFFCURVE",
"746 317 CURVE",
"769 347 OFFCURVE",
"787 388 OFFCURVE",
"794 441 CURVE",
"729 441 LINE",
"718 373 OFFCURVE",
"687 318 OFFCURVE",
"633 318 CURVE",
"540 318 OFFCURVE",
"537 441 OFFCURVE",
"537 493 CURVE",
"537 525 OFFCURVE",
"540 670 OFFCURVE",
"633 670 CURVE",
"696 670 OFFCURVE",
"720 595 OFFCURVE",
"724 545 CURVE",
"787 545 LINE",
"784 588 OFFCURVE",
"769 644 OFFCURVE",
"736 682 CURVE",
"695 728 OFFCURVE",
"631 734 OFFCURVE",
"551 734 CURVE",
"462 734 OFFCURVE",
"399 726 OFFCURVE",
"344 672 CURVE",
"304 632 OFFCURVE",
"286 571 OFFCURVE",
"286 493 CURVE",
"286 417 OFFCURVE",
"308 358 OFFCURVE",
"351 315 CURVE",
"395 271 OFFCURVE",
"451 252 OFFCURVE",
"551 252 CURVE"
);
}
);
width = 1080;
}
);
leftKerningGroup = "0";
rightKerningGroup = "0";
unicode = 00A9;
},
{
glyphname = registered;
layers = (
{
layerId = "1C2BFDD8-856B-473B-8B37-FA70972360C9";
paths = (
{
closed = 1;
nodes = (
"816 -7 OFFCURVE",
"1040 217 OFFCURVE",
"1040 493 CURVE",
"1040 769 OFFCURVE",
"816 993 OFFCURVE",
"540 993 CURVE",
"264 993 OFFCURVE",
"40 769 OFFCURVE",
"40 493 CURVE",
"40 217 OFFCURVE",
"264 -7 OFFCURVE",
"540 -7 CURVE"
);
},
{
closed = 1;
nodes = (
"325 103 OFFCURVE",
"150 278 OFFCURVE",
"150 493 CURVE",
"150 708 OFFCURVE",
"325 883 OFFCURVE",
"540 883 CURVE",
"756 883 OFFCURVE",
"930 708 OFFCURVE",
"930 493 CURVE",
"930 278 OFFCURVE",
"756 103 OFFCURVE",
"540 103 CURVE"
);
},
{
closed = 1;
nodes = (
"490 278 LINE",
"490 441 LINE",
"506 441 LINE",
"515 440 OFFCURVE",
"525 439 OFFCURVE",
"535 437 CURVE",
"545 436 OFFCURVE",
"554 432 OFFCURVE",
"562 428 CURVE",
"569 423 OFFCURVE",
"576 417 OFFCURVE",
"581 409 CURVE",
"586 402 OFFCURVE",
"588 392 OFFCURVE",
"588 379 CURVE",
"588 345 LINE",
"588 278 LINE",
"789 278 LINE",
"789 369 LINE",
"789 412 OFFCURVE",
"758 448 OFFCURVE",
"716 460 CURVE",
"765 478 OFFCURVE",
"800 525 OFFCURVE",
"800 580 CURVE",
"800 651 OFFCURVE",
"742 708 OFFCURVE",
"672 708 CURVE",
"291 708 LINE",
"291 278 LINE"
);
},
{
closed = 1;
nodes = (
"490 653 LINE",
"510 653 LINE",
"554 653 OFFCURVE",
"589 617 OFFCURVE",
"589 574 CURVE",
"589 530 OFFCURVE",
"554 495 OFFCURVE",
"510 495 CURVE",
"490 494 LINE"
);
}
);
width = 1080;
}
);
leftKerningGroup = "0";
rightKerningGroup = "0";
unicode = 00AE;
},
{
glyphname = published;
layers = (
{
layerId = "1C2BFDD8-856B-473B-8B37-FA70972360C9";
paths = (
{
closed = 1;
nodes = (
"816 -7 OFFCURVE",
"1040 217 OFFCURVE",
"1040 493 CURVE",
"1040 769 OFFCURVE",
"816 993 OFFCURVE",
"540 993 CURVE",
"264 993 OFFCURVE",
"40 769 OFFCURVE",
"40 493 CURVE",
"40 217 OFFCURVE",
"264 -7 OFFCURVE",
"540 -7 CURVE"
);
},
{
closed = 1;
nodes = (
"325 103 OFFCURVE",
"150 278 OFFCURVE",
"150 493 CURVE",
"150 708 OFFCURVE",
"325 883 OFFCURVE",
"540 883 CURVE",
"755 883 OFFCURVE",
"930 708 OFFCURVE",
"930 493 CURVE",
"930 278 OFFCURVE",
"755 103 OFFCURVE",
"540 103 CURVE"
);
},
{
closed = 1;
nodes = (
"501 278 LINE",
"501 439 LINE",
"676 439 LINE",
"750 439 OFFCURVE",
"810 499 OFFCURVE",
"810 573 CURVE",
"810 648 OFFCURVE",
"750 708 OFFCURVE",
"676 708 CURVE",
"302 708 LINE",
"302 278 LINE"
);
},
{
closed = 1;
nodes = (
"501 653 LINE",
"521 653 LINE",
"565 653 OFFCURVE",
"600 617 OFFCURVE",
"600 574 CURVE",
"600 530 OFFCURVE",
"565 495 OFFCURVE",
"521 495 CURVE",
"501 494 LINE"
);
}
);
width = 1080;
}
);
leftKerningGroup = "0";
rightKerningGroup = "0";
unicode = 2117;
},
{
glyphname = trademark;
layers = (
{
layerId = "1C2BFDD8-856B-473B-8B37-FA70972360C9";
paths = (
{
closed = 1;
nodes = (
"700 555 LINE",
"700 777 LINE",
"797 555 LINE",
"891 555 LINE",
"982 790 LINE",
"982 555 LINE",
"1179 555 LINE",
"1179 985 LINE",
"976 985 LINE",
"904 806 LINE",
"815 985 LINE",
"618 985 LINE",
"618 555 LINE"
);
},
{
closed = 1;
nodes = (
"422 555 LINE",
"422 901 LINE",
"578 901 LINE",
"578 985 LINE",
"40 985 LINE",
"40 901 LINE",
"195 901 LINE",
"195 555 LINE"
);
}
);
width = 1219;
}
);
rightKerningGroup = H;
unicode = 2122;
},
{
glyphname = degree;
layers = (
{
layerId = "1C2BFDD8-856B-473B-8B37-FA70972360C9";
paths = (
{
closed = 1;
nodes = (
"709 378 OFFCURVE",
"890 482 OFFCURVE",
"890 682 CURVE",
"890 879 OFFCURVE",
"709 985 OFFCURVE",
"485 985 CURVE",
"262 985 OFFCURVE",
"80 879 OFFCURVE",
"80 682 CURVE",
"80 482 OFFCURVE",
"262 378 OFFCURVE",
"485 378 CURVE"
);
},
{
closed = 1;
nodes = (
"413 461 OFFCURVE",
"395 537 OFFCURVE",
"395 682 CURVE",
"395 826 OFFCURVE",
"413 902 OFFCURVE",
"485 902 CURVE",
"558 902 OFFCURVE",
"575 826 OFFCURVE",
"575 682 CURVE",
"575 537 OFFCURVE",
"558 461 OFFCURVE",
"485 461 CURVE"
);
}
);
width = 970;
}
);
leftKerningGroup = O;
rightKerningGroup = O;
unicode = 00B0;
},
{
glyphname = bar;
layers = (
{
layerId = "1C2BFDD8-856B-473B-8B37-FA70972360C9";
paths = (
{
closed = 1;
nodes = (
"360 -157 LINE",
"360 1143 LINE",
"80 1143 LINE",
"80 -157 LINE"
);
}
);
width = 440;
}
);
leftKerningGroup = H;
rightKerningGroup = H;
unicode = 007C;
},
{
glyphname = brokenbar;
layers = (
{
layerId = "1C2BFDD8-856B-473B-8B37-FA70972360C9";
paths = (
{
closed = 1;
nodes = (
"360 599 LINE",
"360 1143 LINE",
"80 1143 LINE",
"80 599 LINE"
);
},
{
closed = 1;
nodes = (
"360 -155 LINE",
"360 389 LINE",
"80 389 LINE",
"80 -155 LINE"
);
}
);
width = 440;
}
);
leftKerningGroup = H;
rightKerningGroup = H;
unicode = 00A6;
},
{
glyphname = dieresiscomb;
layers = (
{
anchors = (
{
name = _top;
position = "{305, 985}";
},
{
name = top;
position = "{305, 1248}";
}
);
layerId = "1C2BFDD8-856B-473B-8B37-FA70972360C9";
paths = (
{
closed = 1;
nodes = (
"528 1043 OFFCURVE",
"581 1076 OFFCURVE",
"581 1145 CURVE",
"581 1215 OFFCURVE",
"528 1248 OFFCURVE",
"473 1248 CURVE",
"417 1248 OFFCURVE",
"364 1215 OFFCURVE",
"364 1145 CURVE",
"364 1076 OFFCURVE",
"417 1043 OFFCURVE",
"473 1043 CURVE"
);
},
{
closed = 1;
nodes = (
"194 1043 OFFCURVE",
"247 1076 OFFCURVE",
"247 1145 CURVE",
"247 1215 OFFCURVE",
"194 1248 OFFCURVE",
"139 1248 CURVE",
"83 1248 OFFCURVE",
"30 1215 OFFCURVE",
"30 1145 CURVE",
"30 1076 OFFCURVE",
"83 1043 OFFCURVE",
"139 1043 CURVE"
);
}
);
width = 611;
}
);
unicode = 0308;
},
{
glyphname = dotaccentcomb;
layers = (
{
anchors = (
{
name = _top;
position = "{511, 985}";
},
{
name = top;
position = "{511, 1248}";
}
);
layerId = "1C2BFDD8-856B-473B-8B37-FA70972360C9";
paths = (
{
closed = 1;
nodes = (
"566.21 1042.574 OFFCURVE",
"618.967 1076.189 OFFCURVE",
"618.967 1145.074 CURVE",
"618.967 1215.192 OFFCURVE",
"566.21 1247.574 OFFCURVE",
"510.674 1247.574 CURVE",
"455.137 1247.574 OFFCURVE",
"402.38 1215.192 OFFCURVE",
"402.38 1145.074 CURVE",
"402.38 1076.189 OFFCURVE",
"455.137 1042.574 OFFCURVE",
"510.674 1042.574 CURVE"
);
}
);
width = 600;
}
);
unicode = 0307;
},
{
glyphname = gravecomb;
layers = (
{
anchors = (
{
name = _top;
position = "{451, 985}";
},
{
name = top;
position = "{450, 1049}";
}
);
layerId = "1C2BFDD8-856B-473B-8B37-FA70972360C9";
paths = (
{
closed = 1;
nodes = (
"650 1049 LINE",
"430 1241 LINE",
"30 1241 LINE",
"250 1049 LINE"
);
}
);
width = 680;
}
);
unicode = 0300;
},
{
glyphname = acutecomb;
layers = (
{
anchors = (
{
name = _top;
position = "{231, 985}";
},
{
name = top;
position = "{231, 1049}";
}
);
layerId = "1C2BFDD8-856B-473B-8B37-FA70972360C9";
paths = (
{
closed = 1;
nodes = (
"430 1049 LINE",
"650 1241 LINE",
"250 1241 LINE",
"30 1049 LINE"
);
}
);
width = 680;
}
);
unicode = 0301;
},
{
glyphname = circumflexcomb;
layers = (
{
anchors = (
{
name = _top;
position = "{340, 985}";
},
{
name = top;
position = "{340, 1049}";
}
);
layerId = "1C2BFDD8-856B-473B-8B37-FA70972360C9";
paths = (
{
closed = 1;
nodes = (
"650 1049 LINE",
"340 1241 LINE",
"30 1049 LINE"
);
}
);
width = 680;
}
);
unicode = 0302;
},
{
glyphname = ringcomb;
layers = (
{
anchors = (
{
name = _top;
position = "{237, 985}";
},
{
name = top;
position = "{237, 1035}";
}
);
layerId = "1C2BFDD8-856B-473B-8B37-FA70972360C9";
paths = (
{
closed = 1;
nodes = (
"336 1035 OFFCURVE",
"444 1054 OFFCURVE",
"444 1155 CURVE",
"444 1256 OFFCURVE",
"336 1275 OFFCURVE",
"237 1275 CURVE",
"138 1275 OFFCURVE",
"30 1256 OFFCURVE",
"30 1155 CURVE",
"30 1054 OFFCURVE",
"138 1035 OFFCURVE",
"237 1035 CURVE"
);
},
{
closed = 1;
nodes = (
"204 1098 OFFCURVE",
"202 1130 OFFCURVE",
"202 1155 CURVE",
"202 1180 OFFCURVE",
"204 1212 OFFCURVE",
"237 1212 CURVE",
"270 1212 OFFCURVE",
"272 1180 OFFCURVE",
"272 1155 CURVE",
"272 1130 OFFCURVE",
"270 1098 OFFCURVE",
"237 1098 CURVE"
);
}
);
width = 474;
}
);
unicode = 030A;
},
{
glyphname = tildecomb;
layers = (
{
anchors = (
{
name = _top;
position = "{394, 985}";
},
{
name = top;
position = "{394, 1049}";
}
);
layerId = "1C2BFDD8-856B-473B-8B37-FA70972360C9";
paths = (
{
closed = 1;
nodes = (
"758 1241 OFFCURVE",
"738 1039 OFFCURVE",
"520 1039 CURVE",
"392 1039 OFFCURVE",
"336 1105 OFFCURVE",
"235 1105 CURVE",
"152 1105 OFFCURVE",
"140 1049 OFFCURVE",
"140 1049 CURVE",
"30 1049 LINE",
"30 1049 OFFCURVE",
"50 1251 OFFCURVE",
"268 1251 CURVE",
"396 1251 OFFCURVE",
"452 1185 OFFCURVE",
"553 1185 CURVE",
"636 1185 OFFCURVE",
"648 1241 OFFCURVE",
"648 1241 CURVE",
"758 1241 LINE"
);
}
);
width = 788;
}
);
unicode = 0303;
},
{
glyphname = cedillacomb;
layers = (
{
anchors = (
{
name = _top;
position = "{304, 993}";
},
{
name = top;
position = "{304, 1057}";
}
);
layerId = "1C2BFDD8-856B-473B-8B37-FA70972360C9";
paths = (
{
closed = 1;
nodes = (
"380 -297 OFFCURVE",
"487 -274 OFFCURVE",
"487 -177 CURVE",
"487 -108 OFFCURVE",
"437 -77 OFFCURVE",
"373 -64 CURVE",
"402 27 LINE",
"217 27 LINE",
"178 -120 LINE",
"280 -120 OFFCURVE",
"315 -137 OFFCURVE",
"315 -177 CURVE",
"315 -202 OFFCURVE",
"298 -234 OFFCURVE",
"235 -234 CURVE",
"192 -234 OFFCURVE",
"145 -221 OFFCURVE",
"138 -177 CURVE",
"70 -177 LINE",
"75 -278 OFFCURVE",
"181 -297 OFFCURVE",
"280 -297 CURVE"
);
}
);
width = 600;
}
);
unicode = 0327;
},
{
glyphname = strokeshortcomb;
layers = (
{
anchors = (
{
name = _top;
position = "{386, 985}";
},
{
name = top;
position = "{386, 1049}";
}
);
layerId = "1C2BFDD8-856B-473B-8B37-FA70972360C9";
paths = (
{
closed = 1;
nodes = (
"742 453 LINE",
"742 537 LINE",
"30 537 LINE",
"30 453 LINE"
);
}
);
width = 772;
}
);
unicode = 0335;
},
{
glyphname = slashlongcomb;
layers = (
{
anchors = (
{
name = _top;
position = "{511, 985}";
},
{
name = top;
position = "{511, 1049}";
}
);
layerId = "1C2BFDD8-856B-473B-8B37-FA70972360C9";
paths = (
{
closed = 1;
nodes = (
"867.574 753.128 LINE",
"667.574 837.277 LINE",
"153.982 237.278 LINE",
"353.982 153.128 LINE"
);
}
);
width = 600;
}
);
unicode = 0338;
},
{
glyphname = macron;
layers = (
{
anchors = (
{
name = _top;
position = "{343, 985}";
},
{
name = top;
position = "{340, 1049}";
}
);
layerId = "1C2BFDD8-856B-473B-8B37-FA70972360C9";
paths = (
{
closed = 1;
nodes = (
"650 1049 LINE",
"650 1241 LINE",
"30 1241 LINE",
"30 1049 LINE"
);
}
);
width = 680;
}
);
unicode = 00AF;
},
{
glyphname = uniE0FF;
layers = (
{
layerId = "1C2BFDD8-856B-473B-8B37-FA70972360C9";
paths = (
{
closed = 1;
nodes = (
"1025 0 LINE",
"1025 985 LINE",
"40 985 LINE",
"40 0 LINE"
);
},
{
closed = 1;
nodes = (
"216 453 LINE",
"368 453 LINE",
"472 217 LINE",
"560 453 LINE",
"627 453 LINE",
"730 222 LINE",
"816 453 LINE",
"850 453 LINE",
"732 140 LINE",
"597 140 LINE",
"532 287 LINE",
"477 140 LINE",
"355 140 LINE"
);
},
{
closed = 1;
nodes = (
"389 845 LINE",
"520 845 LINE",
"651 688 LINE",
"651 845 LINE",
"677 845 LINE",
"677 531 LINE",
"572 531 LINE",
"416 740 LINE",
"416 531 LINE",
"389 531 LINE"
);
}
);
width = 1065;
}
);
leftKerningGroup = H;
rightKerningGroup = H;
unicode = E0FF;
},
